<?xml version="1.0" encoding="utf-8" standalone="no"?>
<!DOCTYPE svg PUBLIC "-//W3C//DTD SVG 1.1//EN"
  "http://www.w3.org/Graphics/SVG/1.1/DTD/svg11.dtd">
<!-- Created with matplotlib (https://matplotlib.org/) -->
<svg height="468pt" version="1.1" viewBox="0 0 504 468" width="504pt" xmlns="http://www.w3.org/2000/svg" xmlns:xlink="http://www.w3.org/1999/xlink">
 <defs>
  <style type="text/css">
*{stroke-linecap:butt;stroke-linejoin:round;}
  </style>
 </defs>
 <g id="figure_1">
  <g id="patch_1">
   <path d="M 0 468 
L 504 468 
L 504 0 
L 0 0 
z
" style="fill:#ffffff;"/>
  </g>
  <g id="axes_1">
   <g id="patch_2">
    <path d="M 93.24 404.82 
L 496.44 404.82 
L 496.44 14.04 
L 93.24 14.04 
z
" style="fill:#ffffff;"/>
   </g>
   <g id="patch_3">
    <path clip-path="url(#p2494954fc5)" d="M 93.24 404.82 
L 95.808153 404.82 
L 95.808153 404.82 
L 93.24 404.82 
z
" style="fill:#5f5f5f;"/>
   </g>
   <g id="patch_4">
    <path clip-path="url(#p2494954fc5)" d="M 95.808153 404.82 
L 98.376306 404.82 
L 98.376306 404.82 
L 95.808153 404.82 
z
" style="fill:#5f5f5f;"/>
   </g>
   <g id="patch_5">
    <path clip-path="url(#p2494954fc5)" d="M 98.376306 404.82 
L 100.944459 404.82 
L 100.944459 404.82 
L 98.376306 404.82 
z
" style="fill:#5f5f5f;"/>
   </g>
   <g id="patch_6">
    <path clip-path="url(#p2494954fc5)" d="M 100.944459 404.82 
L 103.512611 404.82 
L 103.512611 402.78751 
L 100.944459 402.78751 
z
" style="fill:#5f5f5f;"/>
   </g>
   <g id="patch_7">
    <path clip-path="url(#p2494954fc5)" d="M 103.512611 404.82 
L 106.080764 404.82 
L 106.080764 342.264487 
L 103.512611 342.264487 
z
" style="fill:#5f5f5f;"/>
   </g>
   <g id="patch_8">
    <path clip-path="url(#p2494954fc5)" d="M 106.080764 404.82 
L 108.648917 404.82 
L 108.648917 138.789695 
L 106.080764 138.789695 
z
" style="fill:#5f5f5f;"/>
   </g>
   <g id="patch_9">
    <path clip-path="url(#p2494954fc5)" d="M 108.648917 404.82 
L 111.21707 404.82 
L 111.21707 32.648571 
L 108.648917 32.648571 
z
" style="fill:#5f5f5f;"/>
   </g>
   <g id="patch_10">
    <path clip-path="url(#p2494954fc5)" d="M 111.21707 404.82 
L 113.785223 404.82 
L 113.785223 80.073329 
L 111.21707 80.073329 
z
" style="fill:#5f5f5f;"/>
   </g>
   <g id="patch_11">
    <path clip-path="url(#p2494954fc5)" d="M 113.785223 404.82 
L 116.353376 404.82 
L 116.353376 103.334043 
L 113.785223 103.334043 
z
" style="fill:#5f5f5f;"/>
   </g>
   <g id="patch_12">
    <path clip-path="url(#p2494954fc5)" d="M 116.353376 404.82 
L 118.921529 404.82 
L 118.921529 175.148675 
L 116.353376 175.148675 
z
" style="fill:#5f5f5f;"/>
   </g>
   <g id="patch_13">
    <path clip-path="url(#p2494954fc5)" d="M 118.921529 404.82 
L 121.489682 404.82 
L 121.489682 215.798467 
L 118.921529 215.798467 
z
" style="fill:#5f5f5f;"/>
   </g>
   <g id="patch_14">
    <path clip-path="url(#p2494954fc5)" d="M 121.489682 404.82 
L 124.057834 404.82 
L 124.057834 254.641602 
L 121.489682 254.641602 
z
" style="fill:#5f5f5f;"/>
   </g>
   <g id="patch_15">
    <path clip-path="url(#p2494954fc5)" d="M 124.057834 404.82 
L 126.625987 404.82 
L 126.625987 298.678877 
L 124.057834 298.678877 
z
" style="fill:#5f5f5f;"/>
   </g>
   <g id="patch_16">
    <path clip-path="url(#p2494954fc5)" d="M 126.625987 404.82 
L 129.19414 404.82 
L 129.19414 321.939591 
L 126.625987 321.939591 
z
" style="fill:#5f5f5f;"/>
   </g>
   <g id="patch_17">
    <path clip-path="url(#p2494954fc5)" d="M 129.19414 404.82 
L 131.762293 404.82 
L 131.762293 351.97527 
L 129.19414 351.97527 
z
" style="fill:#5f5f5f;"/>
   </g>
   <g id="patch_18">
    <path clip-path="url(#p2494954fc5)" d="M 131.762293 404.82 
L 134.330446 404.82 
L 134.330446 361.23439 
L 131.762293 361.23439 
z
" style="fill:#5f5f5f;"/>
   </g>
   <g id="patch_19">
    <path clip-path="url(#p2494954fc5)" d="M 134.330446 404.82 
L 136.898599 404.82 
L 136.898599 381.333454 
L 134.330446 381.333454 
z
" style="fill:#5f5f5f;"/>
   </g>
   <g id="patch_20">
    <path clip-path="url(#p2494954fc5)" d="M 136.898599 404.82 
L 139.466752 404.82 
L 139.466752 379.97846 
L 136.898599 379.97846 
z
" style="fill:#5f5f5f;"/>
   </g>
   <g id="patch_21">
    <path clip-path="url(#p2494954fc5)" d="M 139.466752 404.82 
L 142.034904 404.82 
L 142.034904 394.657552 
L 139.466752 394.657552 
z
" style="fill:#5f5f5f;"/>
   </g>
   <g id="patch_22">
    <path clip-path="url(#p2494954fc5)" d="M 142.034904 404.82 
L 144.603057 404.82 
L 144.603057 398.948363 
L 142.034904 398.948363 
z
" style="fill:#5f5f5f;"/>
   </g>
   <g id="patch_23">
    <path clip-path="url(#p2494954fc5)" d="M 144.603057 404.82 
L 147.17121 404.82 
L 147.17121 400.980853 
L 144.603057 400.980853 
z
" style="fill:#5f5f5f;"/>
   </g>
   <g id="patch_24">
    <path clip-path="url(#p2494954fc5)" d="M 147.17121 404.82 
L 149.739363 404.82 
L 149.739363 401.432517 
L 147.17121 401.432517 
z
" style="fill:#5f5f5f;"/>
   </g>
   <g id="patch_25">
    <path clip-path="url(#p2494954fc5)" d="M 149.739363 404.82 
L 152.307516 404.82 
L 152.307516 403.239175 
L 149.739363 403.239175 
z
" style="fill:#5f5f5f;"/>
   </g>
   <g id="patch_26">
    <path clip-path="url(#p2494954fc5)" d="M 152.307516 404.82 
L 154.875669 404.82 
L 154.875669 404.82 
L 152.307516 404.82 
z
" style="fill:#5f5f5f;"/>
   </g>
   <g id="patch_27">
    <path clip-path="url(#p2494954fc5)" d="M 154.875669 404.82 
L 157.443822 404.82 
L 157.443822 403.916671 
L 154.875669 403.916671 
z
" style="fill:#5f5f5f;"/>
   </g>
   <g id="patch_28">
    <path clip-path="url(#p2494954fc5)" d="M 157.443822 404.82 
L 160.011975 404.82 
L 160.011975 403.916671 
L 157.443822 403.916671 
z
" style="fill:#5f5f5f;"/>
   </g>
   <g id="patch_29">
    <path clip-path="url(#p2494954fc5)" d="M 160.011975 404.82 
L 162.580127 404.82 
L 162.580127 404.82 
L 160.011975 404.82 
z
" style="fill:#5f5f5f;"/>
   </g>
   <g id="patch_30">
    <path clip-path="url(#p2494954fc5)" d="M 162.580127 404.82 
L 165.14828 404.82 
L 165.14828 404.82 
L 162.580127 404.82 
z
" style="fill:#5f5f5f;"/>
   </g>
   <g id="patch_31">
    <path clip-path="url(#p2494954fc5)" d="M 165.14828 404.82 
L 167.716433 404.82 
L 167.716433 404.82 
L 165.14828 404.82 
z
" style="fill:#5f5f5f;"/>
   </g>
   <g id="patch_32">
    <path clip-path="url(#p2494954fc5)" d="M 167.716433 404.82 
L 170.284586 404.82 
L 170.284586 404.82 
L 167.716433 404.82 
z
" style="fill:#5f5f5f;"/>
   </g>
   <g id="patch_33">
    <path clip-path="url(#p2494954fc5)" d="M 170.284586 404.82 
L 172.852739 404.82 
L 172.852739 404.82 
L 170.284586 404.82 
z
" style="fill:#5f5f5f;"/>
   </g>
   <g id="patch_34">
    <path clip-path="url(#p2494954fc5)" d="M 172.852739 404.82 
L 175.420892 404.82 
L 175.420892 404.82 
L 172.852739 404.82 
z
" style="fill:#5f5f5f;"/>
   </g>
   <g id="patch_35">
    <path clip-path="url(#p2494954fc5)" d="M 175.420892 404.82 
L 177.989045 404.82 
L 177.989045 404.82 
L 175.420892 404.82 
z
" style="fill:#5f5f5f;"/>
   </g>
   <g id="patch_36">
    <path clip-path="url(#p2494954fc5)" d="M 177.989045 404.82 
L 180.557197 404.82 
L 180.557197 404.82 
L 177.989045 404.82 
z
" style="fill:#5f5f5f;"/>
   </g>
   <g id="patch_37">
    <path clip-path="url(#p2494954fc5)" d="M 180.557197 404.82 
L 183.12535 404.82 
L 183.12535 404.82 
L 180.557197 404.82 
z
" style="fill:#5f5f5f;"/>
   </g>
   <g id="patch_38">
    <path clip-path="url(#p2494954fc5)" d="M 183.12535 404.82 
L 185.693503 404.82 
L 185.693503 404.82 
L 183.12535 404.82 
z
" style="fill:#5f5f5f;"/>
   </g>
   <g id="patch_39">
    <path clip-path="url(#p2494954fc5)" d="M 185.693503 404.82 
L 188.261656 404.82 
L 188.261656 404.82 
L 185.693503 404.82 
z
" style="fill:#5f5f5f;"/>
   </g>
   <g id="patch_40">
    <path clip-path="url(#p2494954fc5)" d="M 188.261656 404.82 
L 190.829809 404.82 
L 190.829809 404.82 
L 188.261656 404.82 
z
" style="fill:#5f5f5f;"/>
   </g>
   <g id="patch_41">
    <path clip-path="url(#p2494954fc5)" d="M 190.829809 404.82 
L 193.397962 404.82 
L 193.397962 404.82 
L 190.829809 404.82 
z
" style="fill:#5f5f5f;"/>
   </g>
   <g id="patch_42">
    <path clip-path="url(#p2494954fc5)" d="M 193.397962 404.82 
L 195.966115 404.82 
L 195.966115 404.82 
L 193.397962 404.82 
z
" style="fill:#5f5f5f;"/>
   </g>
   <g id="patch_43">
    <path clip-path="url(#p2494954fc5)" d="M 195.966115 404.82 
L 198.534268 404.82 
L 198.534268 404.82 
L 195.966115 404.82 
z
" style="fill:#5f5f5f;"/>
   </g>
   <g id="patch_44">
    <path clip-path="url(#p2494954fc5)" d="M 198.534268 404.82 
L 201.10242 404.82 
L 201.10242 404.82 
L 198.534268 404.82 
z
" style="fill:#5f5f5f;"/>
   </g>
   <g id="patch_45">
    <path clip-path="url(#p2494954fc5)" d="M 201.10242 404.82 
L 203.670573 404.82 
L 203.670573 404.82 
L 201.10242 404.82 
z
" style="fill:#5f5f5f;"/>
   </g>
   <g id="patch_46">
    <path clip-path="url(#p2494954fc5)" d="M 203.670573 404.82 
L 206.238726 404.82 
L 206.238726 404.82 
L 203.670573 404.82 
z
" style="fill:#5f5f5f;"/>
   </g>
   <g id="patch_47">
    <path clip-path="url(#p2494954fc5)" d="M 206.238726 404.82 
L 208.806879 404.82 
L 208.806879 404.82 
L 206.238726 404.82 
z
" style="fill:#5f5f5f;"/>
   </g>
   <g id="patch_48">
    <path clip-path="url(#p2494954fc5)" d="M 208.806879 404.82 
L 211.375032 404.82 
L 211.375032 404.82 
L 208.806879 404.82 
z
" style="fill:#5f5f5f;"/>
   </g>
   <g id="patch_49">
    <path clip-path="url(#p2494954fc5)" d="M 211.375032 404.82 
L 213.943185 404.82 
L 213.943185 404.82 
L 211.375032 404.82 
z
" style="fill:#5f5f5f;"/>
   </g>
   <g id="patch_50">
    <path clip-path="url(#p2494954fc5)" d="M 213.943185 404.82 
L 216.511338 404.82 
L 216.511338 404.82 
L 213.943185 404.82 
z
" style="fill:#5f5f5f;"/>
   </g>
   <g id="patch_51">
    <path clip-path="url(#p2494954fc5)" d="M 216.511338 404.82 
L 219.07949 404.82 
L 219.07949 404.82 
L 216.511338 404.82 
z
" style="fill:#5f5f5f;"/>
   </g>
   <g id="patch_52">
    <path clip-path="url(#p2494954fc5)" d="M 219.07949 404.82 
L 221.647643 404.82 
L 221.647643 404.82 
L 219.07949 404.82 
z
" style="fill:#5f5f5f;"/>
   </g>
   <g id="patch_53">
    <path clip-path="url(#p2494954fc5)" d="M 221.647643 404.82 
L 224.215796 404.82 
L 224.215796 404.82 
L 221.647643 404.82 
z
" style="fill:#5f5f5f;"/>
   </g>
   <g id="patch_54">
    <path clip-path="url(#p2494954fc5)" d="M 224.215796 404.82 
L 226.783949 404.82 
L 226.783949 404.82 
L 224.215796 404.82 
z
" style="fill:#5f5f5f;"/>
   </g>
   <g id="patch_55">
    <path clip-path="url(#p2494954fc5)" d="M 226.783949 404.82 
L 229.352102 404.82 
L 229.352102 404.82 
L 226.783949 404.82 
z
" style="fill:#5f5f5f;"/>
   </g>
   <g id="patch_56">
    <path clip-path="url(#p2494954fc5)" d="M 229.352102 404.82 
L 231.920255 404.82 
L 231.920255 404.82 
L 229.352102 404.82 
z
" style="fill:#5f5f5f;"/>
   </g>
   <g id="patch_57">
    <path clip-path="url(#p2494954fc5)" d="M 231.920255 404.82 
L 234.488408 404.82 
L 234.488408 404.82 
L 231.920255 404.82 
z
" style="fill:#5f5f5f;"/>
   </g>
   <g id="patch_58">
    <path clip-path="url(#p2494954fc5)" d="M 234.488408 404.82 
L 237.056561 404.82 
L 237.056561 404.82 
L 234.488408 404.82 
z
" style="fill:#5f5f5f;"/>
   </g>
   <g id="patch_59">
    <path clip-path="url(#p2494954fc5)" d="M 237.056561 404.82 
L 239.624713 404.82 
L 239.624713 404.82 
L 237.056561 404.82 
z
" style="fill:#5f5f5f;"/>
   </g>
   <g id="patch_60">
    <path clip-path="url(#p2494954fc5)" d="M 239.624713 404.82 
L 242.192866 404.82 
L 242.192866 404.82 
L 239.624713 404.82 
z
" style="fill:#5f5f5f;"/>
   </g>
   <g id="patch_61">
    <path clip-path="url(#p2494954fc5)" d="M 242.192866 404.82 
L 244.761019 404.82 
L 244.761019 404.82 
L 242.192866 404.82 
z
" style="fill:#5f5f5f;"/>
   </g>
   <g id="patch_62">
    <path clip-path="url(#p2494954fc5)" d="M 244.761019 404.82 
L 247.329172 404.82 
L 247.329172 404.82 
L 244.761019 404.82 
z
" style="fill:#5f5f5f;"/>
   </g>
   <g id="patch_63">
    <path clip-path="url(#p2494954fc5)" d="M 247.329172 404.82 
L 249.897325 404.82 
L 249.897325 404.82 
L 247.329172 404.82 
z
" style="fill:#5f5f5f;"/>
   </g>
   <g id="patch_64">
    <path clip-path="url(#p2494954fc5)" d="M 249.897325 404.82 
L 252.465478 404.82 
L 252.465478 404.82 
L 249.897325 404.82 
z
" style="fill:#5f5f5f;"/>
   </g>
   <g id="patch_65">
    <path clip-path="url(#p2494954fc5)" d="M 252.465478 404.82 
L 255.033631 404.82 
L 255.033631 404.82 
L 252.465478 404.82 
z
" style="fill:#5f5f5f;"/>
   </g>
   <g id="patch_66">
    <path clip-path="url(#p2494954fc5)" d="M 255.033631 404.82 
L 257.601783 404.82 
L 257.601783 404.82 
L 255.033631 404.82 
z
" style="fill:#5f5f5f;"/>
   </g>
   <g id="patch_67">
    <path clip-path="url(#p2494954fc5)" d="M 257.601783 404.82 
L 260.169936 404.82 
L 260.169936 404.82 
L 257.601783 404.82 
z
" style="fill:#5f5f5f;"/>
   </g>
   <g id="patch_68">
    <path clip-path="url(#p2494954fc5)" d="M 260.169936 404.82 
L 262.738089 404.82 
L 262.738089 404.82 
L 260.169936 404.82 
z
" style="fill:#5f5f5f;"/>
   </g>
   <g id="patch_69">
    <path clip-path="url(#p2494954fc5)" d="M 262.738089 404.82 
L 265.306242 404.82 
L 265.306242 404.82 
L 262.738089 404.82 
z
" style="fill:#5f5f5f;"/>
   </g>
   <g id="patch_70">
    <path clip-path="url(#p2494954fc5)" d="M 265.306242 404.82 
L 267.874395 404.82 
L 267.874395 404.82 
L 265.306242 404.82 
z
" style="fill:#5f5f5f;"/>
   </g>
   <g id="patch_71">
    <path clip-path="url(#p2494954fc5)" d="M 267.874395 404.82 
L 270.442548 404.82 
L 270.442548 404.82 
L 267.874395 404.82 
z
" style="fill:#5f5f5f;"/>
   </g>
   <g id="patch_72">
    <path clip-path="url(#p2494954fc5)" d="M 270.442548 404.82 
L 273.010701 404.82 
L 273.010701 404.82 
L 270.442548 404.82 
z
" style="fill:#5f5f5f;"/>
   </g>
   <g id="patch_73">
    <path clip-path="url(#p2494954fc5)" d="M 273.010701 404.82 
L 275.578854 404.82 
L 275.578854 404.82 
L 273.010701 404.82 
z
" style="fill:#5f5f5f;"/>
   </g>
   <g id="patch_74">
    <path clip-path="url(#p2494954fc5)" d="M 275.578854 404.82 
L 278.147006 404.82 
L 278.147006 404.82 
L 275.578854 404.82 
z
" style="fill:#5f5f5f;"/>
   </g>
   <g id="patch_75">
    <path clip-path="url(#p2494954fc5)" d="M 278.147006 404.82 
L 280.715159 404.82 
L 280.715159 404.82 
L 278.147006 404.82 
z
" style="fill:#5f5f5f;"/>
   </g>
   <g id="patch_76">
    <path clip-path="url(#p2494954fc5)" d="M 280.715159 404.82 
L 283.283312 404.82 
L 283.283312 404.82 
L 280.715159 404.82 
z
" style="fill:#5f5f5f;"/>
   </g>
   <g id="patch_77">
    <path clip-path="url(#p2494954fc5)" d="M 283.283312 404.82 
L 285.851465 404.82 
L 285.851465 404.82 
L 283.283312 404.82 
z
" style="fill:#5f5f5f;"/>
   </g>
   <g id="patch_78">
    <path clip-path="url(#p2494954fc5)" d="M 285.851465 404.82 
L 288.419618 404.82 
L 288.419618 404.82 
L 285.851465 404.82 
z
" style="fill:#5f5f5f;"/>
   </g>
   <g id="patch_79">
    <path clip-path="url(#p2494954fc5)" d="M 288.419618 404.82 
L 290.987771 404.82 
L 290.987771 404.82 
L 288.419618 404.82 
z
" style="fill:#5f5f5f;"/>
   </g>
   <g id="patch_80">
    <path clip-path="url(#p2494954fc5)" d="M 290.987771 404.82 
L 293.555924 404.82 
L 293.555924 404.82 
L 290.987771 404.82 
z
" style="fill:#5f5f5f;"/>
   </g>
   <g id="patch_81">
    <path clip-path="url(#p2494954fc5)" d="M 293.555924 404.82 
L 296.124076 404.82 
L 296.124076 404.82 
L 293.555924 404.82 
z
" style="fill:#5f5f5f;"/>
   </g>
   <g id="patch_82">
    <path clip-path="url(#p2494954fc5)" d="M 296.124076 404.82 
L 298.692229 404.82 
L 298.692229 404.82 
L 296.124076 404.82 
z
" style="fill:#5f5f5f;"/>
   </g>
   <g id="patch_83">
    <path clip-path="url(#p2494954fc5)" d="M 298.692229 404.82 
L 301.260382 404.82 
L 301.260382 404.82 
L 298.692229 404.82 
z
" style="fill:#5f5f5f;"/>
   </g>
   <g id="patch_84">
    <path clip-path="url(#p2494954fc5)" d="M 301.260382 404.82 
L 303.828535 404.82 
L 303.828535 404.82 
L 301.260382 404.82 
z
" style="fill:#5f5f5f;"/>
   </g>
   <g id="patch_85">
    <path clip-path="url(#p2494954fc5)" d="M 303.828535 404.82 
L 306.396688 404.82 
L 306.396688 404.82 
L 303.828535 404.82 
z
" style="fill:#5f5f5f;"/>
   </g>
   <g id="patch_86">
    <path clip-path="url(#p2494954fc5)" d="M 306.396688 404.82 
L 308.964841 404.82 
L 308.964841 404.82 
L 306.396688 404.82 
z
" style="fill:#5f5f5f;"/>
   </g>
   <g id="patch_87">
    <path clip-path="url(#p2494954fc5)" d="M 308.964841 404.82 
L 311.532994 404.82 
L 311.532994 404.82 
L 308.964841 404.82 
z
" style="fill:#5f5f5f;"/>
   </g>
   <g id="patch_88">
    <path clip-path="url(#p2494954fc5)" d="M 311.532994 404.82 
L 314.101146 404.82 
L 314.101146 404.82 
L 311.532994 404.82 
z
" style="fill:#5f5f5f;"/>
   </g>
   <g id="patch_89">
    <path clip-path="url(#p2494954fc5)" d="M 314.101146 404.82 
L 316.669299 404.82 
L 316.669299 404.82 
L 314.101146 404.82 
z
" style="fill:#5f5f5f;"/>
   </g>
   <g id="patch_90">
    <path clip-path="url(#p2494954fc5)" d="M 316.669299 404.82 
L 319.237452 404.82 
L 319.237452 404.82 
L 316.669299 404.82 
z
" style="fill:#5f5f5f;"/>
   </g>
   <g id="patch_91">
    <path clip-path="url(#p2494954fc5)" d="M 319.237452 404.82 
L 321.805605 404.82 
L 321.805605 404.82 
L 319.237452 404.82 
z
" style="fill:#5f5f5f;"/>
   </g>
   <g id="patch_92">
    <path clip-path="url(#p2494954fc5)" d="M 321.805605 404.82 
L 324.373758 404.82 
L 324.373758 404.82 
L 321.805605 404.82 
z
" style="fill:#5f5f5f;"/>
   </g>
   <g id="patch_93">
    <path clip-path="url(#p2494954fc5)" d="M 324.373758 404.82 
L 326.941911 404.82 
L 326.941911 404.82 
L 324.373758 404.82 
z
" style="fill:#5f5f5f;"/>
   </g>
   <g id="patch_94">
    <path clip-path="url(#p2494954fc5)" d="M 326.941911 404.82 
L 329.510064 404.82 
L 329.510064 404.82 
L 326.941911 404.82 
z
" style="fill:#5f5f5f;"/>
   </g>
   <g id="patch_95">
    <path clip-path="url(#p2494954fc5)" d="M 329.510064 404.82 
L 332.078217 404.82 
L 332.078217 404.82 
L 329.510064 404.82 
z
" style="fill:#5f5f5f;"/>
   </g>
   <g id="patch_96">
    <path clip-path="url(#p2494954fc5)" d="M 332.078217 404.82 
L 334.646369 404.82 
L 334.646369 404.82 
L 332.078217 404.82 
z
" style="fill:#5f5f5f;"/>
   </g>
   <g id="patch_97">
    <path clip-path="url(#p2494954fc5)" d="M 334.646369 404.82 
L 337.214522 404.82 
L 337.214522 404.82 
L 334.646369 404.82 
z
" style="fill:#5f5f5f;"/>
   </g>
   <g id="patch_98">
    <path clip-path="url(#p2494954fc5)" d="M 337.214522 404.82 
L 339.782675 404.82 
L 339.782675 404.82 
L 337.214522 404.82 
z
" style="fill:#5f5f5f;"/>
   </g>
   <g id="patch_99">
    <path clip-path="url(#p2494954fc5)" d="M 339.782675 404.82 
L 342.350828 404.82 
L 342.350828 404.82 
L 339.782675 404.82 
z
" style="fill:#5f5f5f;"/>
   </g>
   <g id="patch_100">
    <path clip-path="url(#p2494954fc5)" d="M 342.350828 404.82 
L 344.918981 404.82 
L 344.918981 404.82 
L 342.350828 404.82 
z
" style="fill:#5f5f5f;"/>
   </g>
   <g id="patch_101">
    <path clip-path="url(#p2494954fc5)" d="M 344.918981 404.82 
L 347.487134 404.82 
L 347.487134 404.82 
L 344.918981 404.82 
z
" style="fill:#5f5f5f;"/>
   </g>
   <g id="patch_102">
    <path clip-path="url(#p2494954fc5)" d="M 347.487134 404.82 
L 350.055287 404.82 
L 350.055287 404.82 
L 347.487134 404.82 
z
" style="fill:#5f5f5f;"/>
   </g>
   <g id="patch_103">
    <path clip-path="url(#p2494954fc5)" d="M 350.055287 404.82 
L 352.623439 404.82 
L 352.623439 404.82 
L 350.055287 404.82 
z
" style="fill:#5f5f5f;"/>
   </g>
   <g id="patch_104">
    <path clip-path="url(#p2494954fc5)" d="M 352.623439 404.82 
L 355.191592 404.82 
L 355.191592 404.82 
L 352.623439 404.82 
z
" style="fill:#5f5f5f;"/>
   </g>
   <g id="patch_105">
    <path clip-path="url(#p2494954fc5)" d="M 355.191592 404.82 
L 357.759745 404.82 
L 357.759745 404.82 
L 355.191592 404.82 
z
" style="fill:#5f5f5f;"/>
   </g>
   <g id="patch_106">
    <path clip-path="url(#p2494954fc5)" d="M 357.759745 404.82 
L 360.327898 404.82 
L 360.327898 404.82 
L 357.759745 404.82 
z
" style="fill:#5f5f5f;"/>
   </g>
   <g id="patch_107">
    <path clip-path="url(#p2494954fc5)" d="M 360.327898 404.82 
L 362.896051 404.82 
L 362.896051 404.82 
L 360.327898 404.82 
z
" style="fill:#5f5f5f;"/>
   </g>
   <g id="patch_108">
    <path clip-path="url(#p2494954fc5)" d="M 362.896051 404.82 
L 365.464204 404.82 
L 365.464204 404.82 
L 362.896051 404.82 
z
" style="fill:#5f5f5f;"/>
   </g>
   <g id="patch_109">
    <path clip-path="url(#p2494954fc5)" d="M 365.464204 404.82 
L 368.032357 404.82 
L 368.032357 404.82 
L 365.464204 404.82 
z
" style="fill:#5f5f5f;"/>
   </g>
   <g id="patch_110">
    <path clip-path="url(#p2494954fc5)" d="M 368.032357 404.82 
L 370.60051 404.82 
L 370.60051 404.82 
L 368.032357 404.82 
z
" style="fill:#5f5f5f;"/>
   </g>
   <g id="patch_111">
    <path clip-path="url(#p2494954fc5)" d="M 370.60051 404.82 
L 373.168662 404.82 
L 373.168662 404.82 
L 370.60051 404.82 
z
" style="fill:#5f5f5f;"/>
   </g>
   <g id="patch_112">
    <path clip-path="url(#p2494954fc5)" d="M 373.168662 404.82 
L 375.736815 404.82 
L 375.736815 404.82 
L 373.168662 404.82 
z
" style="fill:#5f5f5f;"/>
   </g>
   <g id="patch_113">
    <path clip-path="url(#p2494954fc5)" d="M 375.736815 404.82 
L 378.304968 404.82 
L 378.304968 404.82 
L 375.736815 404.82 
z
" style="fill:#5f5f5f;"/>
   </g>
   <g id="patch_114">
    <path clip-path="url(#p2494954fc5)" d="M 378.304968 404.82 
L 380.873121 404.82 
L 380.873121 404.82 
L 378.304968 404.82 
z
" style="fill:#5f5f5f;"/>
   </g>
   <g id="patch_115">
    <path clip-path="url(#p2494954fc5)" d="M 380.873121 404.82 
L 383.441274 404.82 
L 383.441274 404.82 
L 380.873121 404.82 
z
" style="fill:#5f5f5f;"/>
   </g>
   <g id="patch_116">
    <path clip-path="url(#p2494954fc5)" d="M 383.441274 404.82 
L 386.009427 404.82 
L 386.009427 404.82 
L 383.441274 404.82 
z
" style="fill:#5f5f5f;"/>
   </g>
   <g id="patch_117">
    <path clip-path="url(#p2494954fc5)" d="M 386.009427 404.82 
L 388.57758 404.82 
L 388.57758 404.82 
L 386.009427 404.82 
z
" style="fill:#5f5f5f;"/>
   </g>
   <g id="patch_118">
    <path clip-path="url(#p2494954fc5)" d="M 388.57758 404.82 
L 391.145732 404.82 
L 391.145732 404.82 
L 388.57758 404.82 
z
" style="fill:#5f5f5f;"/>
   </g>
   <g id="patch_119">
    <path clip-path="url(#p2494954fc5)" d="M 391.145732 404.82 
L 393.713885 404.82 
L 393.713885 404.82 
L 391.145732 404.82 
z
" style="fill:#5f5f5f;"/>
   </g>
   <g id="patch_120">
    <path clip-path="url(#p2494954fc5)" d="M 393.713885 404.82 
L 396.282038 404.82 
L 396.282038 404.82 
L 393.713885 404.82 
z
" style="fill:#5f5f5f;"/>
   </g>
   <g id="patch_121">
    <path clip-path="url(#p2494954fc5)" d="M 396.282038 404.82 
L 398.850191 404.82 
L 398.850191 404.82 
L 396.282038 404.82 
z
" style="fill:#5f5f5f;"/>
   </g>
   <g id="patch_122">
    <path clip-path="url(#p2494954fc5)" d="M 398.850191 404.82 
L 401.418344 404.82 
L 401.418344 404.82 
L 398.850191 404.82 
z
" style="fill:#5f5f5f;"/>
   </g>
   <g id="patch_123">
    <path clip-path="url(#p2494954fc5)" d="M 401.418344 404.82 
L 403.986497 404.82 
L 403.986497 404.82 
L 401.418344 404.82 
z
" style="fill:#5f5f5f;"/>
   </g>
   <g id="patch_124">
    <path clip-path="url(#p2494954fc5)" d="M 403.986497 404.82 
L 406.55465 404.82 
L 406.55465 404.82 
L 403.986497 404.82 
z
" style="fill:#5f5f5f;"/>
   </g>
   <g id="patch_125">
    <path clip-path="url(#p2494954fc5)" d="M 406.55465 404.82 
L 409.122803 404.82 
L 409.122803 404.82 
L 406.55465 404.82 
z
" style="fill:#5f5f5f;"/>
   </g>
   <g id="patch_126">
    <path clip-path="url(#p2494954fc5)" d="M 409.122803 404.82 
L 411.690955 404.82 
L 411.690955 404.82 
L 409.122803 404.82 
z
" style="fill:#5f5f5f;"/>
   </g>
   <g id="patch_127">
    <path clip-path="url(#p2494954fc5)" d="M 411.690955 404.82 
L 414.259108 404.82 
L 414.259108 404.82 
L 411.690955 404.82 
z
" style="fill:#5f5f5f;"/>
   </g>
   <g id="patch_128">
    <path clip-path="url(#p2494954fc5)" d="M 414.259108 404.82 
L 416.827261 404.82 
L 416.827261 404.82 
L 414.259108 404.82 
z
" style="fill:#5f5f5f;"/>
   </g>
   <g id="patch_129">
    <path clip-path="url(#p2494954fc5)" d="M 416.827261 404.82 
L 419.395414 404.82 
L 419.395414 404.82 
L 416.827261 404.82 
z
" style="fill:#5f5f5f;"/>
   </g>
   <g id="patch_130">
    <path clip-path="url(#p2494954fc5)" d="M 419.395414 404.82 
L 421.963567 404.82 
L 421.963567 404.82 
L 419.395414 404.82 
z
" style="fill:#5f5f5f;"/>
   </g>
   <g id="patch_131">
    <path clip-path="url(#p2494954fc5)" d="M 421.963567 404.82 
L 424.53172 404.82 
L 424.53172 404.82 
L 421.963567 404.82 
z
" style="fill:#5f5f5f;"/>
   </g>
   <g id="patch_132">
    <path clip-path="url(#p2494954fc5)" d="M 424.53172 404.82 
L 427.099873 404.82 
L 427.099873 404.82 
L 424.53172 404.82 
z
" style="fill:#5f5f5f;"/>
   </g>
   <g id="patch_133">
    <path clip-path="url(#p2494954fc5)" d="M 427.099873 404.82 
L 429.668025 404.82 
L 429.668025 404.82 
L 427.099873 404.82 
z
" style="fill:#5f5f5f;"/>
   </g>
   <g id="patch_134">
    <path clip-path="url(#p2494954fc5)" d="M 429.668025 404.82 
L 432.236178 404.82 
L 432.236178 404.82 
L 429.668025 404.82 
z
" style="fill:#5f5f5f;"/>
   </g>
   <g id="patch_135">
    <path clip-path="url(#p2494954fc5)" d="M 432.236178 404.82 
L 434.804331 404.82 
L 434.804331 404.82 
L 432.236178 404.82 
z
" style="fill:#5f5f5f;"/>
   </g>
   <g id="patch_136">
    <path clip-path="url(#p2494954fc5)" d="M 434.804331 404.82 
L 437.372484 404.82 
L 437.372484 404.82 
L 434.804331 404.82 
z
" style="fill:#5f5f5f;"/>
   </g>
   <g id="patch_137">
    <path clip-path="url(#p2494954fc5)" d="M 437.372484 404.82 
L 439.940637 404.82 
L 439.940637 404.82 
L 437.372484 404.82 
z
" style="fill:#5f5f5f;"/>
   </g>
   <g id="patch_138">
    <path clip-path="url(#p2494954fc5)" d="M 439.940637 404.82 
L 442.50879 404.82 
L 442.50879 404.82 
L 439.940637 404.82 
z
" style="fill:#5f5f5f;"/>
   </g>
   <g id="patch_139">
    <path clip-path="url(#p2494954fc5)" d="M 442.50879 404.82 
L 445.076943 404.82 
L 445.076943 404.82 
L 442.50879 404.82 
z
" style="fill:#5f5f5f;"/>
   </g>
   <g id="patch_140">
    <path clip-path="url(#p2494954fc5)" d="M 445.076943 404.82 
L 447.645096 404.82 
L 447.645096 404.82 
L 445.076943 404.82 
z
" style="fill:#5f5f5f;"/>
   </g>
   <g id="patch_141">
    <path clip-path="url(#p2494954fc5)" d="M 447.645096 404.82 
L 450.213248 404.82 
L 450.213248 404.82 
L 447.645096 404.82 
z
" style="fill:#5f5f5f;"/>
   </g>
   <g id="patch_142">
    <path clip-path="url(#p2494954fc5)" d="M 450.213248 404.82 
L 452.781401 404.82 
L 452.781401 404.82 
L 450.213248 404.82 
z
" style="fill:#5f5f5f;"/>
   </g>
   <g id="patch_143">
    <path clip-path="url(#p2494954fc5)" d="M 452.781401 404.82 
L 455.349554 404.82 
L 455.349554 404.82 
L 452.781401 404.82 
z
" style="fill:#5f5f5f;"/>
   </g>
   <g id="patch_144">
    <path clip-path="url(#p2494954fc5)" d="M 455.349554 404.82 
L 457.917707 404.82 
L 457.917707 404.82 
L 455.349554 404.82 
z
" style="fill:#5f5f5f;"/>
   </g>
   <g id="patch_145">
    <path clip-path="url(#p2494954fc5)" d="M 457.917707 404.82 
L 460.48586 404.82 
L 460.48586 404.82 
L 457.917707 404.82 
z
" style="fill:#5f5f5f;"/>
   </g>
   <g id="patch_146">
    <path clip-path="url(#p2494954fc5)" d="M 460.48586 404.82 
L 463.054013 404.82 
L 463.054013 404.82 
L 460.48586 404.82 
z
" style="fill:#5f5f5f;"/>
   </g>
   <g id="patch_147">
    <path clip-path="url(#p2494954fc5)" d="M 463.054013 404.82 
L 465.622166 404.82 
L 465.622166 404.82 
L 463.054013 404.82 
z
" style="fill:#5f5f5f;"/>
   </g>
   <g id="patch_148">
    <path clip-path="url(#p2494954fc5)" d="M 465.622166 404.82 
L 468.190318 404.82 
L 468.190318 404.82 
L 465.622166 404.82 
z
" style="fill:#5f5f5f;"/>
   </g>
   <g id="patch_149">
    <path clip-path="url(#p2494954fc5)" d="M 468.190318 404.82 
L 470.758471 404.82 
L 470.758471 404.82 
L 468.190318 404.82 
z
" style="fill:#5f5f5f;"/>
   </g>
   <g id="patch_150">
    <path clip-path="url(#p2494954fc5)" d="M 470.758471 404.82 
L 473.326624 404.82 
L 473.326624 404.82 
L 470.758471 404.82 
z
" style="fill:#5f5f5f;"/>
   </g>
   <g id="patch_151">
    <path clip-path="url(#p2494954fc5)" d="M 473.326624 404.82 
L 475.894777 404.82 
L 475.894777 404.82 
L 473.326624 404.82 
z
" style="fill:#5f5f5f;"/>
   </g>
   <g id="patch_152">
    <path clip-path="url(#p2494954fc5)" d="M 475.894777 404.82 
L 478.46293 404.82 
L 478.46293 404.82 
L 475.894777 404.82 
z
" style="fill:#5f5f5f;"/>
   </g>
   <g id="patch_153">
    <path clip-path="url(#p2494954fc5)" d="M 478.46293 404.82 
L 481.031083 404.82 
L 481.031083 404.82 
L 478.46293 404.82 
z
" style="fill:#5f5f5f;"/>
   </g>
   <g id="patch_154">
    <path clip-path="url(#p2494954fc5)" d="M 481.031083 404.82 
L 483.599236 404.82 
L 483.599236 404.82 
L 481.031083 404.82 
z
" style="fill:#5f5f5f;"/>
   </g>
   <g id="patch_155">
    <path clip-path="url(#p2494954fc5)" d="M 483.599236 404.82 
L 486.167389 404.82 
L 486.167389 404.82 
L 483.599236 404.82 
z
" style="fill:#5f5f5f;"/>
   </g>
   <g id="patch_156">
    <path clip-path="url(#p2494954fc5)" d="M 486.167389 404.82 
L 488.735541 404.82 
L 488.735541 404.82 
L 486.167389 404.82 
z
" style="fill:#5f5f5f;"/>
   </g>
   <g id="patch_157">
    <path clip-path="url(#p2494954fc5)" d="M 488.735541 404.82 
L 491.303694 404.82 
L 491.303694 404.82 
L 488.735541 404.82 
z
" style="fill:#5f5f5f;"/>
   </g>
   <g id="patch_158">
    <path clip-path="url(#p2494954fc5)" d="M 491.303694 404.82 
L 493.871847 404.82 
L 493.871847 404.82 
L 491.303694 404.82 
z
" style="fill:#5f5f5f;"/>
   </g>
   <g id="patch_159">
    <path clip-path="url(#p2494954fc5)" d="M 493.871847 404.82 
L 496.44 404.82 
L 496.44 404.82 
L 493.871847 404.82 
z
" style="fill:#5f5f5f;"/>
   </g>
   <g id="matplotlib.axis_1">
    <g id="xtick_1">
     <g id="line2d_1">
      <defs>
       <path d="M 0 0 
L 0 3.5 
" id="m9459eabf20" style="stroke:#000000;stroke-width:0.8;"/>
      </defs>
      <g>
       <use style="stroke:#000000;stroke-width:0.8;" x="93.24" xlink:href="#m9459eabf20" y="404.82"/>
      </g>
     </g>
     <g id="text_1">
      <!-- $0$ -->
      <defs>
       <path d="M 42 31.640625 
C 42 37.75 41.90625 48.125 37.703125 56.109375 
C 34 63.109375 28.09375 65.59375 22.90625 65.59375 
C 18.09375 65.59375 12 63.40625 8.203125 56.203125 
C 4.203125 48.71875 3.796875 39.4375 3.796875 31.640625 
C 3.796875 25.953125 3.90625 17.28125 7 9.671875 
C 11.296875 -0.609375 19 -2 22.90625 -2 
C 27.5 -2 34.5 -0.109375 38.59375 9.375 
C 41.59375 16.28125 42 24.359375 42 31.640625 
z
M 22.90625 -0.40625 
C 16.5 -0.40625 12.703125 5.078125 11.296875 12.6875 
C 10.203125 18.5625 10.203125 27.15625 10.203125 32.75 
C 10.203125 40.4375 10.203125 46.828125 11.5 52.921875 
C 13.40625 61.390625 19 64 22.90625 64 
C 27 64 32.296875 61.296875 34.203125 53.125 
C 35.5 47.4375 35.59375 40.734375 35.59375 32.75 
C 35.59375 26.25 35.59375 18.265625 34.40625 12.375 
C 32.296875 1.484375 26.40625 -0.40625 22.90625 -0.40625 
z
" id="CMR17-48"/>
      </defs>
      <g transform="translate(85.929524 433.959207)scale(0.32 -0.32)">
       <use transform="scale(0.996264)" xlink:href="#CMR17-48"/>
      </g>
     </g>
    </g>
    <g id="xtick_2">
     <g id="line2d_2">
      <g>
       <use style="stroke:#000000;stroke-width:0.8;" x="195.966115" xlink:href="#m9459eabf20" y="404.82"/>
      </g>
     </g>
     <g id="text_2">
      <!-- $200$ -->
      <defs>
       <path d="M 41.703125 15.453125 
L 39.90625 15.453125 
C 38.90625 8.375 38.09375 7.171875 37.703125 6.5625 
C 37.203125 5.765625 30 5.765625 28.59375 5.765625 
L 9.40625 5.765625 
C 13 9.671875 20 16.75 28.5 24.953125 
C 34.59375 30.734375 41.703125 37.53125 41.703125 47.421875 
C 41.703125 59.21875 32.296875 66 21.796875 66 
C 10.796875 66 4.09375 56.3125 4.09375 47.34375 
C 4.09375 43.4375 7 42.9375 8.203125 42.9375 
C 9.203125 42.9375 12.203125 43.546875 12.203125 47.03125 
C 12.203125 50.109375 9.59375 51 8.203125 51 
C 7.59375 51 7 50.90625 6.59375 50.703125 
C 8.5 59.21875 14.296875 63.40625 20.40625 63.40625 
C 29.09375 63.40625 34.796875 56.515625 34.796875 47.421875 
C 34.796875 38.734375 29.703125 31.25 24 24.75 
L 4.09375 2.28125 
L 4.09375 0 
L 39.296875 0 
z
" id="CMR17-50"/>
      </defs>
      <g transform="translate(174.034686 433.959207)scale(0.32 -0.32)">
       <use transform="scale(0.996264)" xlink:href="#CMR17-50"/>
       <use transform="translate(45.690477 0)scale(0.996264)" xlink:href="#CMR17-48"/>
       <use transform="translate(91.380954 0)scale(0.996264)" xlink:href="#CMR17-48"/>
      </g>
     </g>
    </g>
    <g id="xtick_3">
     <g id="line2d_3">
      <g>
       <use style="stroke:#000000;stroke-width:0.8;" x="298.692229" xlink:href="#m9459eabf20" y="404.82"/>
      </g>
     </g>
     <g id="text_3">
      <!-- $400$ -->
      <defs>
       <path d="M 33.59375 64.40625 
C 33.59375 66.5 33.5 66.5 31.703125 66.5 
L 2 19.59375 
L 2 17 
L 27.796875 17 
L 27.796875 7.140625 
C 27.796875 3.5 27.59375 2.5 20.59375 2.5 
L 18.703125 2.5 
L 18.703125 0 
C 21.90625 0 27.296875 0 30.703125 0 
C 34.09375 0 39.5 0 42.703125 0 
L 42.703125 2.5 
L 40.796875 2.5 
C 33.796875 2.5 33.59375 3.5 33.59375 7.140625 
L 33.59375 17 
L 43.796875 17 
L 43.796875 19.59375 
L 33.59375 19.59375 
z
M 28.09375 57.859375 
L 28.09375 19.59375 
L 4 19.59375 
z
" id="CMR17-52"/>
      </defs>
      <g transform="translate(276.7608 433.959207)scale(0.32 -0.32)">
       <use transform="scale(0.996264)" xlink:href="#CMR17-52"/>
       <use transform="translate(45.690477 0)scale(0.996264)" xlink:href="#CMR17-48"/>
       <use transform="translate(91.380954 0)scale(0.996264)" xlink:href="#CMR17-48"/>
      </g>
     </g>
    </g>
    <g id="xtick_4">
     <g id="line2d_4">
      <g>
       <use style="stroke:#000000;stroke-width:0.8;" x="401.418344" xlink:href="#m9459eabf20" y="404.82"/>
      </g>
     </g>
     <g id="text_4">
      <!-- $600$ -->
      <defs>
       <path d="M 10.59375 34 
C 10.59375 57.65625 21.796875 63 28.296875 63 
C 30.40625 63 35.5 62.640625 37.5 59 
C 35.90625 59 32.90625 59 32.90625 55.515625 
C 32.90625 52.828125 35.09375 51.921875 36.5 51.921875 
C 37.40625 51.921875 40.09375 52.3125 40.09375 55.625 
C 40.09375 61.78125 35.09375 65.296875 28.203125 65.296875 
C 16.296875 65.296875 3.796875 52.96875 3.796875 31 
C 3.796875 3.953125 15.09375 -2 23.09375 -2 
C 32.796875 -2 42 6.671875 42 20.046875 
C 42 32.515625 33.90625 41.59375 23.703125 41.59375 
C 17.59375 41.59375 13.09375 37.609375 10.59375 30.625 
z
M 23.09375 0.390625 
C 10.796875 0.390625 10.796875 18.75 10.796875 22.4375 
C 10.796875 29.625 14.203125 40 23.5 40 
C 25.203125 40 30.09375 40 33.40625 33.125 
C 35.203125 29.21875 35.203125 25.140625 35.203125 20.140625 
C 35.203125 14.75 35.203125 10.78125 33.09375 6.78125 
C 30.90625 2.671875 27.703125 0.390625 23.09375 0.390625 
z
" id="CMR17-54"/>
      </defs>
      <g transform="translate(379.486915 433.959207)scale(0.32 -0.32)">
       <use transform="scale(0.996264)" xlink:href="#CMR17-54"/>
       <use transform="translate(45.690477 0)scale(0.996264)" xlink:href="#CMR17-48"/>
       <use transform="translate(91.380954 0)scale(0.996264)" xlink:href="#CMR17-48"/>
      </g>
     </g>
    </g>
    <g id="xtick_5">
     <g id="line2d_5">
      <defs>
       <path d="M 0 0 
L 0 2 
" id="ma7e4703dbf" style="stroke:#000000;stroke-width:0.6;"/>
      </defs>
      <g>
       <use style="stroke:#000000;stroke-width:0.6;" x="118.921529" xlink:href="#ma7e4703dbf" y="404.82"/>
      </g>
     </g>
    </g>
    <g id="xtick_6">
     <g id="line2d_6">
      <g>
       <use style="stroke:#000000;stroke-width:0.6;" x="144.603057" xlink:href="#ma7e4703dbf" y="404.82"/>
      </g>
     </g>
    </g>
    <g id="xtick_7">
     <g id="line2d_7">
      <g>
       <use style="stroke:#000000;stroke-width:0.6;" x="170.284586" xlink:href="#ma7e4703dbf" y="404.82"/>
      </g>
     </g>
    </g>
    <g id="xtick_8">
     <g id="line2d_8">
      <g>
       <use style="stroke:#000000;stroke-width:0.6;" x="221.647643" xlink:href="#ma7e4703dbf" y="404.82"/>
      </g>
     </g>
    </g>
    <g id="xtick_9">
     <g id="line2d_9">
      <g>
       <use style="stroke:#000000;stroke-width:0.6;" x="247.329172" xlink:href="#ma7e4703dbf" y="404.82"/>
      </g>
     </g>
    </g>
    <g id="xtick_10">
     <g id="line2d_10">
      <g>
       <use style="stroke:#000000;stroke-width:0.6;" x="273.010701" xlink:href="#ma7e4703dbf" y="404.82"/>
      </g>
     </g>
    </g>
    <g id="xtick_11">
     <g id="line2d_11">
      <g>
       <use style="stroke:#000000;stroke-width:0.6;" x="324.373758" xlink:href="#ma7e4703dbf" y="404.82"/>
      </g>
     </g>
    </g>
    <g id="xtick_12">
     <g id="line2d_12">
      <g>
       <use style="stroke:#000000;stroke-width:0.6;" x="350.055287" xlink:href="#ma7e4703dbf" y="404.82"/>
      </g>
     </g>
    </g>
    <g id="xtick_13">
     <g id="line2d_13">
      <g>
       <use style="stroke:#000000;stroke-width:0.6;" x="375.736815" xlink:href="#ma7e4703dbf" y="404.82"/>
      </g>
     </g>
    </g>
    <g id="xtick_14">
     <g id="line2d_14">
      <g>
       <use style="stroke:#000000;stroke-width:0.6;" x="427.099873" xlink:href="#ma7e4703dbf" y="404.82"/>
      </g>
     </g>
    </g>
    <g id="xtick_15">
     <g id="line2d_15">
      <g>
       <use style="stroke:#000000;stroke-width:0.6;" x="452.781401" xlink:href="#ma7e4703dbf" y="404.82"/>
      </g>
     </g>
    </g>
    <g id="xtick_16">
     <g id="line2d_16">
      <g>
       <use style="stroke:#000000;stroke-width:0.6;" x="478.46293" xlink:href="#ma7e4703dbf" y="404.82"/>
      </g>
     </g>
    </g>
    <g id="text_5">
     <!-- Used features -->
     <defs>
      <path d="M 55.5 68.5 
L 47.90625 68.5 
L 47.90625 22.640625 
C 47.90625 9.4375 39.796875 3.578125 32.40625 3.578125 
C 24.796875 3.578125 17.203125 9.734375 17.203125 22.546875 
L 17.203125 68.5 
L 8.796875 68.5 
L 8.796875 22.71875 
C 8.796875 8.421875 19.90625 -2 32.296875 -2 
C 44.703125 -2 55.5 8.421875 55.5 22.71875 
z
" id="CMSS17-85"/>
      <path d="M 32.203125 41.046875 
C 26.296875 43.859375 21.703125 43.859375 18.703125 43.859375 
C 11.59375 43.859375 3.09375 41.375 3.09375 31.296875 
C 3.09375 21.234375 14.09375 19.03125 17.09375 18.421875 
C 21.703125 17.53125 26.796875 16.53125 26.796875 11.5625 
C 26.796875 5.265625 19.59375 5.265625 18.296875 5.265625 
C 14.296875 5.265625 8.796875 6.359375 3.796875 9.96875 
L 2.59375 3.28125 
C 8.296875 0 13.796875 -1 18.40625 -1 
C 30.703125 -1 33.796875 6.5 33.796875 12.203125 
C 33.796875 17.09375 31 20.390625 29.09375 21.890625 
C 25.796875 24.5 24.59375 24.796875 16.40625 26.5 
C 15 26.703125 10.09375 27.796875 10.09375 32.28125 
C 10.09375 38 16.40625 38 17.796875 38 
C 24.296875 38 28.296875 35.984375 31 34.5 
z
" id="CMSS17-115"/>
      <path d="M 39.09375 21.515625 
C 39.09375 24.84375 38.90625 31.296875 35.703125 36.640625 
C 32.203125 42.390625 26.5 44 22.203125 44 
C 11.796875 44 3 34.1875 3 21.484375 
C 3 9.09375 12.09375 -1 23.59375 -1 
C 28.09375 -1 33.59375 0.296875 38.59375 3.875 
C 38.59375 4.28125 38.40625 6.46875 38.296875 6.5625 
C 38.296875 6.765625 38 9.84375 38 10.25 
C 33.203125 6.359375 27.703125 5.078125 23.703125 5.078125 
C 17.296875 5.078125 10.40625 10.421875 10.09375 21.515625 
z
M 10.90625 27 
C 12.203125 32.5625 16.59375 37.828125 22.203125 37.828125 
C 23.703125 37.828125 30.703125 37.828125 32.5 27 
z
" id="CMSS17-101"/>
      <path d="M 40.796875 69 
L 33.40625 69 
L 33.40625 38.09375 
C 30.296875 40.671875 25.203125 43.0625 19.59375 43.0625 
C 10.5 43.0625 3.296875 33.296875 3.296875 21.046875 
C 3.296875 8.78125 10.40625 -1 19.296875 -1 
C 26.203125 -1 30.796875 2.6875 33.203125 4.78125 
L 33.203125 -0.203125 
L 40.796875 -0.203125 
z
M 33.203125 13.0625 
C 33.203125 11.671875 33.203125 10.203125 30.09375 7.53125 
C 28.09375 5.859375 25.703125 5.078125 23.40625 5.078125 
C 18 5.078125 10.90625 9 10.90625 20.9375 
C 10.90625 33.34375 18.90625 37 24.40625 37 
C 28.09375 37 31.09375 35.21875 33.203125 32.265625 
z
" id="CMSS17-100"/>
      <path d="M 16.796875 37 
L 26.90625 37 
L 26.90625 42.765625 
L 16.59375 42.765625 
L 16.59375 55.609375 
C 16.59375 62.71875 22 63.9375 25.09375 63.9375 
C 26.09375 63.9375 28.90625 63.9375 32.5 62.640625 
L 32.5 69.203125 
C 30.203125 69.703125 27.40625 70 25.203125 70 
C 15.90625 70 9.40625 62.390625 9.40625 52.484375 
L 9.40625 42.765625 
L 2.5 42.765625 
L 2.5 37 
L 9.40625 37 
L 9.40625 0 
L 16.796875 0 
z
" id="CMSS17-102"/>
      <path d="M 37.59375 27.984375 
C 37.59375 37.375 30.90625 43.875 21.90625 43.875 
C 17.5 43.875 12.703125 43.078125 7.203125 39.890625 
L 7.796875 33.359375 
C 10.296875 35.125 14.59375 38 21.796875 38 
C 26.90625 38 30 34.0625 30 27.84375 
L 30 24 
C 14 24 4 19.34375 4 11.34375 
C 4 7.203125 6.5 -1 14.796875 -1 
C 16.296875 -1 24.40625 -1 30.203125 3.390625 
L 30.203125 -0.296875 
L 37.59375 -0.296875 
z
M 30 12.75 
C 30 10.953125 30 8.5625 27 6.78125 
C 24.40625 5.078125 21.09375 5.078125 19.703125 5.078125 
C 14.703125 5.078125 11.296875 7.984375 11.296875 11.625 
C 11.296875 18.921875 26.90625 18.921875 30 18.921875 
z
" id="CMSS17-97"/>
      <path d="M 16.703125 37 
L 29.703125 37 
L 29.703125 42.765625 
L 16.703125 42.765625 
L 16.703125 55 
L 9.59375 55 
L 9.59375 42.765625 
L 1.703125 42.765625 
L 1.703125 37 
L 9.40625 37 
L 9.40625 11.703125 
C 9.40625 6 10.703125 -1 17.296875 -1 
C 22.296875 -1 26.90625 0.390625 31.296875 2.6875 
L 29.703125 8.5625 
C 27.296875 6.46875 24.40625 5.265625 21.296875 5.265625 
C 16.90625 5.265625 16.703125 10.875 16.703125 13.375 
z
" id="CMSS17-116"/>
      <path d="M 40.90625 42.796875 
L 33.296875 42.796875 
L 33.296875 15.1875 
C 33.296875 7.78125 27.90625 4.78125 22.203125 4.78125 
C 15.59375 4.78125 15 6.984375 15 11.078125 
L 15 42.796875 
L 7.40625 42.796875 
L 7.40625 10.59375 
C 7.40625 2.796875 10.09375 -1 17 -1 
C 20.40625 -1 28.09375 -0.203125 33.5 4.78125 
L 33.5 0 
L 40.90625 0 
z
" id="CMSS17-117"/>
      <path d="M 14.90625 21.296875 
C 14.90625 30.703125 21.796875 37 30.59375 37 
L 30.59375 43.578125 
C 24.203125 43.578125 18.203125 40.390625 14.59375 35.203125 
L 14.59375 43.09375 
L 7.5 43.09375 
L 7.5 0 
L 14.90625 0 
z
" id="CMSS17-114"/>
     </defs>
     <g transform="translate(210.39004 466.299434)scale(0.32 -0.32)">
      <use transform="scale(0.996264)" xlink:href="#CMSS17-85"/>
      <use transform="translate(64.13974 0)scale(0.996264)" xlink:href="#CMSS17-115"/>
      <use transform="translate(100.053282 0)scale(0.996264)" xlink:href="#CMSS17-101"/>
      <use transform="translate(141.692104 0)scale(0.996264)" xlink:href="#CMSS17-100"/>
      <use transform="translate(221.12616 0)scale(0.996264)" xlink:href="#CMSS17-102"/>
      <use transform="translate(249.752819 0)scale(0.996264)" xlink:href="#CMSS17-101"/>
      <use transform="translate(291.391641 0)scale(0.996264)" xlink:href="#CMSS17-97"/>
      <use transform="translate(336.313562 0)scale(0.996264)" xlink:href="#CMSS17-116"/>
      <use transform="translate(370.145128 0)scale(0.996264)" xlink:href="#CMSS17-117"/>
      <use transform="translate(418.350072 0)scale(0.996264)" xlink:href="#CMSS17-114"/>
      <use transform="translate(450.259844 0)scale(0.996264)" xlink:href="#CMSS17-101"/>
      <use transform="translate(491.898666 0)scale(0.996264)" xlink:href="#CMSS17-115"/>
     </g>
    </g>
   </g>
   <g id="matplotlib.axis_2">
    <g id="ytick_1">
     <g id="line2d_17">
      <defs>
       <path d="M 0 0 
L -3.5 0 
" id="m57190a5e0e" style="stroke:#000000;stroke-width:0.8;"/>
      </defs>
      <g>
       <use style="stroke:#000000;stroke-width:0.8;" x="93.24" xlink:href="#m57190a5e0e" y="404.82"/>
      </g>
     </g>
     <g id="text_6">
      <!-- 0$\%$ -->
      <defs>
       <path d="M 43.09375 31.9375 
C 43.09375 37.578125 43 48.078125 38.90625 56.1875 
C 34.796875 64 28.203125 66.078125 23.5 66.078125 
C 16.703125 66.078125 10.90625 62.109375 7.90625 55.78125 
C 4.703125 49.15625 3.796875 42.328125 3.796875 31.9375 
C 3.796875 24.828125 4.09375 16.109375 7.703125 8.484375 
C 11.796875 0.078125 18.703125 -2 23.40625 -2 
C 29.59375 -2 35.59375 1.265625 39 8.09375 
C 42.5 15.21875 43.09375 23.03125 43.09375 31.9375 
z
M 23.40625 4.078125 
C 15.796875 4.078125 13.5 12.671875 12.796875 15.546875 
C 11.59375 20.46875 11.40625 25.21875 11.40625 33.03125 
C 11.40625 39.15625 11.40625 46.0625 13.296875 51.515625 
C 15.59375 57.828125 19.59375 60 23.40625 60 
C 30.796875 60 33.203125 52.6875 34 50.125 
C 35.5 44.890625 35.5 38.765625 35.5 33.03125 
C 35.5 23.84375 35.5 4.078125 23.40625 4.078125 
z
" id="CMSS17-48"/>
       <path d="M 72.5 14.984375 
C 72.5 26.53125 66.796875 35 60.09375 35 
C 53.296875 35 46.40625 27.125 46.40625 14.984375 
C 46.40625 2.859375 53.203125 -5 60.09375 -5 
C 66.796875 -5 72.5 3.359375 72.5 14.984375 
z
M 60.203125 -3.40625 
C 57.59375 -3.40625 51.09375 -1.03125 51.09375 14.984375 
C 51.09375 31.109375 57.59375 33.40625 60.203125 33.40625 
C 65.703125 33.40625 70.703125 25.53125 70.703125 14.984375 
C 70.703125 4.453125 65.703125 -3.40625 60.203125 -3.40625 
z
M 63.796875 71.515625 
C 64.5 72.609375 64.59375 72.703125 64.59375 73.203125 
C 64.59375 74.390625 63.703125 75 62.90625 75 
C 61.90625 75 61.5 74.3125 60.796875 73.53125 
C 55 65.46875 47 64.59375 42.90625 64.59375 
C 32.90625 64.59375 26.796875 70.21875 24.90625 71.984375 
C 23.59375 73.15625 21.703125 75 18.296875 75 
C 11.5 75 4.59375 67.125 4.59375 54.984375 
C 4.59375 42.859375 11.40625 35 18.296875 35 
C 25 35 30.703125 43.40625 30.703125 55.109375 
C 30.703125 62.015625 28.59375 66.71875 28.296875 67.3125 
C 34.40625 63.5 40.40625 63 43 63 
C 49.40625 63 54 65.359375 56.5 67.015625 
L 56.59375 66.921875 
L 13.40625 -1.3125 
C 12.5 -2.71875 12.5 -2.921875 12.5 -3.21875 
C 12.5 -4.3125 13.40625 -5 14.296875 -5 
C 15.203125 -5 15.5 -4.515625 16.203125 -3.40625 
z
M 18.40625 36.59375 
C 15.796875 36.59375 9.296875 38.96875 9.296875 54.984375 
C 9.296875 71.109375 15.796875 73.40625 18.40625 73.40625 
C 23.90625 73.40625 28.90625 65.53125 28.90625 54.984375 
C 28.90625 44.453125 23.90625 36.59375 18.40625 36.59375 
z
" id="CMR17-37"/>
      </defs>
      <g transform="translate(46.635769 415.889603)scale(0.32 -0.32)">
       <use transform="scale(0.996264)" xlink:href="#CMSS17-48"/>
       <use transform="translate(46.843624 0)scale(0.996264)" xlink:href="#CMR17-37"/>
      </g>
     </g>
    </g>
    <g id="ytick_2">
     <g id="line2d_18">
      <g>
       <use style="stroke:#000000;stroke-width:0.8;" x="93.24" xlink:href="#m57190a5e0e" y="291.903911"/>
      </g>
     </g>
     <g id="text_7">
      <!-- 1$\%$ -->
      <defs>
       <path d="M 28.40625 67 
L 26.5 67 
C 21.09375 61.5625 14.796875 60.78125 8.40625 60.78125 
L 8.40625 55 
C 11.296875 55 16 55 20.703125 57.296875 
L 20.703125 5.765625 
L 8.90625 5.765625 
L 8.90625 0 
L 40.203125 0 
L 40.203125 5.765625 
L 28.40625 5.765625 
z
" id="CMSS17-49"/>
      </defs>
      <g transform="translate(46.635769 302.973515)scale(0.32 -0.32)">
       <use transform="scale(0.996264)" xlink:href="#CMSS17-49"/>
       <use transform="translate(46.843624 0)scale(0.996264)" xlink:href="#CMR17-37"/>
      </g>
     </g>
    </g>
    <g id="ytick_3">
     <g id="line2d_19">
      <g>
       <use style="stroke:#000000;stroke-width:0.8;" x="93.24" xlink:href="#m57190a5e0e" y="178.987822"/>
      </g>
     </g>
     <g id="text_8">
      <!-- 2$\%$ -->
      <defs>
       <path d="M 25.796875 21.203125 
C 28.59375 24.078125 32.796875 27.5625 35.703125 31.046875 
C 38.5 34.4375 42.203125 39.234375 42.203125 46.203125 
C 42.203125 57.140625 34.796875 67 22.203125 67 
C 12.296875 67 6.59375 60.828125 3.90625 51.15625 
L 7.796875 45.765625 
C 10 54.84375 13.09375 60.625 20.90625 60.625 
C 29.5 60.625 34.296875 53.640625 34.296875 45.96875 
C 34.296875 36.796875 27.296875 29.703125 22 24.421875 
C 16.09375 18.546875 10.296875 12.5625 4.703125 6.375 
L 4.703125 0 
L 42.203125 0 
L 42.203125 6.765625 
L 25.203125 6.765625 
C 24 6.765625 22.796875 6.765625 21.59375 6.765625 
L 11.59375 6.765625 
L 11.59375 6.859375 
z
" id="CMSS17-50"/>
      </defs>
      <g transform="translate(46.635769 190.057426)scale(0.32 -0.32)">
       <use transform="scale(0.996264)" xlink:href="#CMSS17-50"/>
       <use transform="translate(46.843624 0)scale(0.996264)" xlink:href="#CMR17-37"/>
      </g>
     </g>
    </g>
    <g id="ytick_4">
     <g id="line2d_20">
      <g>
       <use style="stroke:#000000;stroke-width:0.8;" x="93.24" xlink:href="#m57190a5e0e" y="66.071734"/>
      </g>
     </g>
     <g id="text_9">
      <!-- 3$\%$ -->
      <defs>
       <path d="M 15.703125 31.640625 
L 22.5 31.640625 
C 31.90625 31.640625 34.59375 23.546875 34.59375 17.90625 
C 34.59375 10.203125 30.203125 4.171875 23 4.171875 
C 17.40625 4.171875 9.5 6.9375 5 14.25 
C 4.296875 10.796875 4.296875 10.59375 3.90625 8.21875 
C 8.59375 1.375 16.203125 -2 23.203125 -2 
C 34.59375 -2 43 7.390625 43 17.78125 
C 43 25.59375 37.5 32.140625 30 34.609375 
C 36 37.875 40.40625 44 40.40625 51.140625 
C 40.40625 59.453125 32.703125 66.078125 23.296875 66.078125 
C 14.703125 66.078125 8 60.8125 5.203125 55.15625 
C 5.90625 54.1875 7.703125 51.3125 8.59375 49.828125 
C 10.796875 55.65625 16.5 60 23.203125 60 
C 28.796875 60 32.5 56.359375 32.5 51.109375 
C 32.5 45.671875 29 39.734375 23.09375 38.359375 
C 22.703125 38.359375 16.5 37.765625 15.703125 37.671875 
z
" id="CMSS17-51"/>
      </defs>
      <g transform="translate(46.635769 77.141337)scale(0.32 -0.32)">
       <use transform="scale(0.996264)" xlink:href="#CMSS17-51"/>
       <use transform="translate(46.843624 0)scale(0.996264)" xlink:href="#CMR17-37"/>
      </g>
     </g>
    </g>
    <g id="ytick_5">
     <g id="line2d_21">
      <defs>
       <path d="M 0 0 
L -2 0 
" id="m4a3ad1f7b2" style="stroke:#000000;stroke-width:0.6;"/>
      </defs>
      <g>
       <use style="stroke:#000000;stroke-width:0.6;" x="93.24" xlink:href="#m4a3ad1f7b2" y="382.236782"/>
      </g>
     </g>
    </g>
    <g id="ytick_6">
     <g id="line2d_22">
      <g>
       <use style="stroke:#000000;stroke-width:0.6;" x="93.24" xlink:href="#m4a3ad1f7b2" y="359.653564"/>
      </g>
     </g>
    </g>
    <g id="ytick_7">
     <g id="line2d_23">
      <g>
       <use style="stroke:#000000;stroke-width:0.6;" x="93.24" xlink:href="#m4a3ad1f7b2" y="337.070347"/>
      </g>
     </g>
    </g>
    <g id="ytick_8">
     <g id="line2d_24">
      <g>
       <use style="stroke:#000000;stroke-width:0.6;" x="93.24" xlink:href="#m4a3ad1f7b2" y="314.487129"/>
      </g>
     </g>
    </g>
    <g id="ytick_9">
     <g id="line2d_25">
      <g>
       <use style="stroke:#000000;stroke-width:0.6;" x="93.24" xlink:href="#m4a3ad1f7b2" y="269.320693"/>
      </g>
     </g>
    </g>
    <g id="ytick_10">
     <g id="line2d_26">
      <g>
       <use style="stroke:#000000;stroke-width:0.6;" x="93.24" xlink:href="#m4a3ad1f7b2" y="246.737476"/>
      </g>
     </g>
    </g>
    <g id="ytick_11">
     <g id="line2d_27">
      <g>
       <use style="stroke:#000000;stroke-width:0.6;" x="93.24" xlink:href="#m4a3ad1f7b2" y="224.154258"/>
      </g>
     </g>
    </g>
    <g id="ytick_12">
     <g id="line2d_28">
      <g>
       <use style="stroke:#000000;stroke-width:0.6;" x="93.24" xlink:href="#m4a3ad1f7b2" y="201.57104"/>
      </g>
     </g>
    </g>
    <g id="ytick_13">
     <g id="line2d_29">
      <g>
       <use style="stroke:#000000;stroke-width:0.6;" x="93.24" xlink:href="#m4a3ad1f7b2" y="156.404605"/>
      </g>
     </g>
    </g>
    <g id="ytick_14">
     <g id="line2d_30">
      <g>
       <use style="stroke:#000000;stroke-width:0.6;" x="93.24" xlink:href="#m4a3ad1f7b2" y="133.821387"/>
      </g>
     </g>
    </g>
    <g id="ytick_15">
     <g id="line2d_31">
      <g>
       <use style="stroke:#000000;stroke-width:0.6;" x="93.24" xlink:href="#m4a3ad1f7b2" y="111.238169"/>
      </g>
     </g>
    </g>
    <g id="ytick_16">
     <g id="line2d_32">
      <g>
       <use style="stroke:#000000;stroke-width:0.6;" x="93.24" xlink:href="#m4a3ad1f7b2" y="88.654951"/>
      </g>
     </g>
    </g>
    <g id="ytick_17">
     <g id="line2d_33">
      <g>
       <use style="stroke:#000000;stroke-width:0.6;" x="93.24" xlink:href="#m4a3ad1f7b2" y="43.488516"/>
      </g>
     </g>
    </g>
    <g id="ytick_18">
     <g id="line2d_34">
      <g>
       <use style="stroke:#000000;stroke-width:0.6;" x="93.24" xlink:href="#m4a3ad1f7b2" y="20.905298"/>
      </g>
     </g>
    </g>
    <g id="text_10">
     <!-- Percentage -->
     <defs>
      <path d="M 32.90625 29 
C 44.90625 29 54.703125 38.328125 54.703125 49.34375 
C 54.703125 60.15625 45.296875 69.578125 32.296875 69.578125 
L 8.90625 69.578125 
L 8.90625 0 
L 17.296875 0 
L 17.296875 29 
z
M 30.09375 64 
C 41.703125 64 46.796875 56.671875 46.796875 49.328125 
C 46.796875 42.5 42.09375 34.78125 30.09375 34.78125 
L 17.09375 34.78125 
L 17.09375 64 
z
" id="CMSS17-80"/>
      <path d="M 38.5 39.703125 
C 38.5 40.390625 33.90625 42.40625 32.703125 42.796875 
C 29.40625 44 25.203125 44 24.09375 44 
C 11.09375 44 3.296875 32.703125 3.296875 21.296875 
C 3.296875 9.296875 12 -1 23.703125 -1 
C 30.40625 -1 35.203125 1.1875 39.09375 3.78125 
L 38.5 10.375 
C 34.203125 7.078125 29.203125 5.265625 23.796875 5.265625 
C 16 5.265625 10.90625 12.09375 10.90625 21.390625 
C 10.90625 28.609375 14.203125 37.71875 24.203125 37.71875 
C 29.703125 37.71875 32.796875 36.609375 37.40625 33.515625 
z
" id="CMSS17-99"/>
      <path d="M 40.90625 29.328125 
C 40.90625 35.671875 39.40625 44 28.09375 44 
C 21.703125 44 17.5 40.71875 14.703125 37.328125 
L 14.703125 43.09375 
L 7.40625 43.09375 
L 7.40625 0 
L 15 0 
L 15 24.359375 
C 15 30.6875 17.40625 37.9375 24.203125 37.9375 
C 33 37.9375 33.296875 32 33.296875 28.578125 
L 33.296875 0 
L 40.90625 0 
z
" id="CMSS17-110"/>
      <path d="M 44.5 43.875 
C 38.796875 43.875 33.90625 42.78125 29.90625 40.890625 
C 26.59375 43.390625 23.203125 43.875 20.90625 43.875 
C 12.203125 43.875 5.59375 36.703125 5.59375 28.34375 
C 5.59375 22.9375 8.59375 18.859375 8.796875 18.671875 
C 7 16.171875 6 13.484375 6 10.5 
C 6 7 7.40625 4.515625 8.5 3.125 
C 3.296875 -0.046875 2.59375 -4.90625 2.59375 -6.796875 
C 2.59375 -14.03125 11.703125 -20 23.40625 -20 
C 35.203125 -20 44.296875 -14.03125 44.296875 -6.6875 
C 44.296875 7 29 7 24.796875 7 
L 16.703125 7 
C 15.203125 7 11.203125 7 11.203125 12.359375 
C 11.203125 14.390625 12.09375 15.6875 12.203125 15.78125 
C 13.703125 14.6875 16.796875 13 20.90625 13 
C 29.203125 13 36.09375 19.96875 36.09375 28.546875 
C 36.09375 33.3125 33.90625 36.796875 33 38 
L 33.296875 38 
C 33.59375 38 37.796875 38 39.296875 38 
C 42.5 38 42.796875 37.953125 45.59375 37.796875 
z
M 20.90625 18.46875 
C 17.5 18.46875 12.703125 20.546875 12.703125 28.484375 
C 12.703125 37.109375 18.203125 38.5 20.796875 38.5 
C 24.203125 38.5 29 36.421875 29 28.484375 
C 29 19.859375 23.5 18.46875 20.90625 18.46875 
z
M 24.703125 -0.15625 
C 27.09375 -0.15625 37.203125 -0.15625 37.203125 -6.90625 
C 37.203125 -11.15625 31 -14.515625 23.5 -14.515625 
C 15.90625 -14.515625 9.703125 -11.25 9.703125 -6.796875 
C 9.703125 -6.296875 9.703125 -0.15625 16.59375 -0.15625 
z
" id="CMSS17-103"/>
     </defs>
     <g transform="translate(36.434749 278.134045)rotate(-90)scale(0.32 -0.32)">
      <use transform="scale(0.996264)" xlink:href="#CMSS17-80"/>
      <use transform="translate(57.133132 0)scale(0.996264)" xlink:href="#CMSS17-101"/>
      <use transform="translate(98.771954 0)scale(0.996264)" xlink:href="#CMSS17-114"/>
      <use transform="translate(130.681727 0)scale(0.996264)" xlink:href="#CMSS17-99"/>
      <use transform="translate(172.320549 0)scale(0.996264)" xlink:href="#CMSS17-101"/>
      <use transform="translate(213.959371 0)scale(0.996264)" xlink:href="#CMSS17-110"/>
      <use transform="translate(262.164314 0)scale(0.996264)" xlink:href="#CMSS17-116"/>
      <use transform="translate(295.995881 0)scale(0.996264)" xlink:href="#CMSS17-97"/>
      <use transform="translate(340.917802 0)scale(0.996264)" xlink:href="#CMSS17-103"/>
      <use transform="translate(387.761425 0)scale(0.996264)" xlink:href="#CMSS17-101"/>
     </g>
    </g>
   </g>
   <g id="patch_160">
    <path d="M 93.24 404.82 
L 93.24 14.04 
" style="fill:none;stroke:#000000;stroke-linecap:square;stroke-linejoin:miter;stroke-width:0.8;"/>
   </g>
   <g id="patch_161">
    <path d="M 496.44 404.82 
L 496.44 14.04 
" style="fill:none;stroke:#000000;stroke-linecap:square;stroke-linejoin:miter;stroke-width:0.8;"/>
   </g>
   <g id="patch_162">
    <path d="M 93.24 404.82 
L 496.44 404.82 
" style="fill:none;stroke:#000000;stroke-linecap:square;stroke-linejoin:miter;stroke-width:0.8;"/>
   </g>
   <g id="patch_163">
    <path d="M 93.24 14.04 
L 496.44 14.04 
" style="fill:none;stroke:#000000;stroke-linecap:square;stroke-linejoin:miter;stroke-width:0.8;"/>
   </g>
   <g id="legend_1"/>
  </g>
 </g>
 <defs>
  <clipPath id="p2494954fc5">
   <rect height="390.78" width="403.2" x="93.24" y="14.04"/>
  </clipPath>
 </defs>
</svg>
