<?xml version="1.0" encoding="UTF-8"?>
<svg xmlns="http://www.w3.org/2000/svg" xmlns:xlink="http://www.w3.org/1999/xlink" width="153.468002pt" height="61.042999pt" viewBox="0 0 153.468002 61.042999" version="1.1">
<g id="surface1">
<path style=" stroke:none;fill-rule:evenodd;fill:rgb(74.116516%,74.116516%,74.116516%);fill-opacity:1;" d="M 104.398438 47.523438 L 112.398438 47.523438 L 112.398438 55.523438 L 104.398438 55.523438 Z M 104.398438 47.523438 "/>
<path style="fill:none;stroke-width:0.4;stroke-linecap:butt;stroke-linejoin:round;stroke:rgb(74.116516%,74.116516%,74.116516%);stroke-opacity:1;stroke-miterlimit:10;" d="M 56.398438 15.523438 L 64.398438 15.523438 "/>
<path style="fill:none;stroke-width:0.4;stroke-linecap:butt;stroke-linejoin:round;stroke:rgb(74.116516%,74.116516%,74.116516%);stroke-opacity:1;stroke-miterlimit:10;" d="M 28.398438 47.523438 L 36.398438 47.523438 "/>
<path style="fill:none;stroke-width:0.4;stroke-linecap:butt;stroke-linejoin:round;stroke:rgb(74.116516%,74.116516%,74.116516%);stroke-opacity:1;stroke-miterlimit:10;" d="M 28.398438 39.523438 L 36.398438 39.523438 "/>
<path style=" stroke:none;fill-rule:nonzero;fill:rgb(0%,0%,0%);fill-opacity:1;" d="M 43.820312 21.890625 C 43.648438 21.5625 43.382812 21.328125 42.976562 21.328125 C 41.929688 21.328125 40.773438 22.578125 40.773438 23.9375 C 40.773438 24.921875 41.398438 25.390625 42.007812 25.390625 C 42.585938 25.390625 43.054688 24.90625 43.210938 24.734375 C 43.304688 25.234375 43.757812 25.390625 44.039062 25.390625 C 44.304688 25.390625 44.523438 25.28125 44.726562 24.90625 C 44.882812 24.609375 45.007812 24.046875 45.007812 24.015625 C 45.007812 23.96875 44.976562 23.90625 44.898438 23.90625 C 44.789062 23.90625 44.773438 23.953125 44.742188 24.125 C 44.539062 24.90625 44.351562 25.171875 44.070312 25.171875 C 43.835938 25.171875 43.789062 24.953125 43.789062 24.765625 C 43.789062 24.59375 43.835938 24.40625 43.914062 24.09375 L 44.132812 23.171875 C 44.195312 22.953125 44.367188 22.28125 44.398438 22.140625 C 44.429688 22.015625 44.492188 21.796875 44.492188 21.765625 C 44.492188 21.625 44.367188 21.515625 44.210938 21.515625 C 44.085938 21.515625 43.867188 21.578125 43.820312 21.890625 Z M 43.242188 24.203125 C 43.195312 24.375 43.195312 24.375 43.054688 24.546875 C 42.726562 24.9375 42.367188 25.171875 42.023438 25.171875 C 41.585938 25.171875 41.445312 24.71875 41.445312 24.328125 C 41.445312 23.890625 41.695312 22.859375 41.914062 22.421875 C 42.195312 21.890625 42.617188 21.5625 42.976562 21.5625 C 43.570312 21.5625 43.710938 22.28125 43.710938 22.34375 C 43.710938 22.375 43.695312 22.4375 43.679688 22.46875 Z M 43.242188 24.203125 "/>
<path style=" stroke:none;fill-rule:nonzero;fill:rgb(0%,0%,0%);fill-opacity:1;" d="M 47.859375 24.015625 L 48.46875 24.015625 C 48.59375 24.015625 48.671875 24.015625 48.671875 23.875 C 48.671875 23.78125 48.59375 23.78125 48.484375 23.78125 L 47.90625 23.78125 C 48.078125 22.796875 48.078125 22.78125 48.109375 22.671875 C 48.140625 22.546875 48.140625 22.5 48.234375 22.421875 C 48.3125 22.375 48.359375 22.34375 48.453125 22.34375 C 48.546875 22.34375 48.640625 22.359375 48.734375 22.390625 C 48.609375 22.453125 48.5 22.578125 48.5 22.71875 C 48.5 22.84375 48.609375 22.953125 48.75 22.953125 C 48.90625 22.953125 49.09375 22.8125 49.09375 22.578125 C 49.09375 22.25 48.71875 22.140625 48.453125 22.140625 C 48.1875 22.140625 47.78125 22.265625 47.59375 22.875 C 47.546875 23.015625 47.53125 23.140625 47.484375 23.359375 C 47.453125 23.53125 47.453125 23.609375 47.40625 23.78125 L 46.921875 23.78125 C 46.796875 23.78125 46.71875 23.78125 46.71875 23.9375 C 46.71875 24.015625 46.796875 24.015625 46.90625 24.015625 L 47.375 24.015625 C 47.140625 25.359375 47.046875 25.828125 47.03125 25.921875 C 46.84375 26.953125 46.8125 27.015625 46.765625 27.125 C 46.671875 27.265625 46.578125 27.375 46.421875 27.375 C 46.390625 27.375 46.25 27.375 46.15625 27.328125 C 46.28125 27.28125 46.390625 27.15625 46.390625 27 C 46.390625 26.875 46.28125 26.78125 46.140625 26.78125 C 45.984375 26.78125 45.796875 26.90625 45.796875 27.140625 C 45.796875 27.484375 46.171875 27.578125 46.421875 27.578125 C 46.75 27.578125 46.984375 27.3125 47.09375 27.171875 C 47.359375 26.828125 47.484375 26.109375 47.484375 26.0625 Z M 47.859375 24.015625 "/>
<path style=" stroke:none;fill-rule:nonzero;fill:rgb(0%,0%,0%);fill-opacity:1;" d="M 49.855469 24.761719 C 50.105469 24.824219 50.339844 24.824219 50.386719 24.824219 C 50.730469 24.824219 50.980469 24.730469 51.105469 24.667969 C 51.230469 24.605469 51.574219 24.386719 51.574219 24.277344 C 51.574219 24.199219 51.511719 24.199219 51.496094 24.199219 C 51.480469 24.199219 51.480469 24.199219 51.417969 24.214844 C 51.230469 24.277344 50.917969 24.355469 50.589844 24.355469 C 50.308594 24.355469 50.042969 24.308594 49.777344 24.214844 C 49.714844 24.199219 49.714844 24.199219 49.699219 24.199219 C 49.621094 24.199219 49.621094 24.246094 49.621094 24.324219 L 49.621094 25.824219 C 49.621094 25.917969 49.621094 25.980469 49.730469 25.980469 C 49.777344 25.980469 49.777344 25.964844 49.824219 25.917969 C 50.011719 25.699219 50.277344 25.589844 50.621094 25.589844 C 50.902344 25.589844 51.074219 25.746094 51.136719 25.855469 C 51.246094 26.027344 51.277344 26.246094 51.277344 26.496094 C 51.277344 26.699219 51.261719 26.980469 51.058594 27.167969 C 50.839844 27.402344 50.558594 27.417969 50.449219 27.417969 C 50.121094 27.417969 49.761719 27.277344 49.605469 26.980469 C 49.808594 26.964844 49.886719 26.824219 49.886719 26.699219 C 49.886719 26.542969 49.761719 26.417969 49.605469 26.417969 C 49.496094 26.417969 49.324219 26.496094 49.324219 26.714844 C 49.324219 27.214844 49.808594 27.621094 50.449219 27.621094 C 51.199219 27.621094 51.808594 27.121094 51.808594 26.511719 C 51.808594 25.949219 51.324219 25.417969 50.636719 25.417969 C 50.324219 25.417969 50.058594 25.496094 49.855469 25.667969 Z M 49.855469 24.761719 "/>
<path style=" stroke:none;fill-rule:evenodd;fill:rgb(13.725281%,13.725281%,13.725281%);fill-opacity:1;" d="M 28.398438 23.523438 L 36.398438 23.523438 L 36.398438 31.523438 L 28.398438 31.523438 Z M 28.398438 23.523438 "/>
<path style=" stroke:none;fill-rule:evenodd;fill:rgb(58.03833%,58.03833%,58.03833%);fill-opacity:1;" d="M 56.398438 39.523438 L 64.398438 39.523438 L 64.398438 47.523438 L 56.398438 47.523438 Z M 56.398438 39.523438 "/>
<path style=" stroke:none;fill-rule:evenodd;fill:rgb(36.862183%,36.862183%,36.862183%);fill-opacity:1;" d="M 104.398438 7.523438 L 112.398438 7.523438 L 112.398438 15.523438 L 104.398438 15.523438 Z M 104.398438 7.523438 "/>
<path style=" stroke:none;fill-rule:evenodd;fill:rgb(58.03833%,58.03833%,58.03833%);fill-opacity:1;" d="M 104.398438 39.523438 L 112.398438 39.523438 L 112.398438 47.523438 L 104.398438 47.523438 Z M 104.398438 39.523438 "/>
<path style=" stroke:none;fill-rule:evenodd;fill:rgb(13.725281%,13.725281%,13.725281%);fill-opacity:1;" d="M 56.398438 23.523438 L 64.398438 23.523438 L 64.398438 31.523438 L 56.398438 31.523438 Z M 56.398438 23.523438 "/>
<path style=" stroke:none;fill-rule:evenodd;fill:rgb(13.725281%,13.725281%,13.725281%);fill-opacity:1;" d="M 104.398438 23.523438 L 112.398438 23.523438 L 112.398438 31.523438 L 104.398438 31.523438 Z M 104.398438 23.523438 "/>
<path style="fill:none;stroke-width:0.4;stroke-linecap:butt;stroke-linejoin:round;stroke:rgb(74.116516%,74.116516%,74.116516%);stroke-opacity:1;stroke-miterlimit:10;" d="M 28.398438 15.523438 L 36.398438 15.523438 "/>
<path style="fill:none;stroke-width:0.8;stroke-linecap:butt;stroke-linejoin:round;stroke:rgb(0%,0%,0%);stroke-opacity:1;stroke-miterlimit:10;" d="M 36.398438 31.523438 L 56.398438 31.523438 "/>
<path style="fill-rule:evenodd;fill:rgb(0%,0%,0%);fill-opacity:1;stroke-width:0.8;stroke-linecap:butt;stroke-linejoin:round;stroke:rgb(0%,0%,0%);stroke-opacity:1;stroke-miterlimit:10;" d="M 56.398438 31.523438 L 51.398438 29.859375 L 51.398438 33.1875 Z M 56.398438 31.523438 "/>
<path style="fill:none;stroke-width:0.8;stroke-linecap:butt;stroke-linejoin:round;stroke:rgb(0%,0%,0%);stroke-opacity:1;stroke-miterlimit:10;" d="M 64.398438 31.523438 L 76.398438 31.523438 "/>
<path style="fill-rule:evenodd;fill:rgb(0%,0%,0%);fill-opacity:1;stroke-width:0.8;stroke-linecap:butt;stroke-linejoin:round;stroke:rgb(0%,0%,0%);stroke-opacity:1;stroke-miterlimit:10;" d="M 76.398438 31.523438 L 71.398438 29.859375 L 71.398438 33.1875 Z M 76.398438 31.523438 "/>
<path style="fill:none;stroke-width:0.8;stroke-linecap:butt;stroke-linejoin:round;stroke:rgb(0%,0%,0%);stroke-opacity:1;stroke-miterlimit:10;" d="M 112.398438 31.523438 L 132.398438 31.523438 "/>
<path style="fill-rule:evenodd;fill:rgb(0%,0%,0%);fill-opacity:1;stroke-width:0.8;stroke-linecap:butt;stroke-linejoin:round;stroke:rgb(0%,0%,0%);stroke-opacity:1;stroke-miterlimit:10;" d="M 132.398438 31.523438 L 127.398438 29.859375 L 127.398438 33.1875 Z M 132.398438 31.523438 "/>
<path style=" stroke:none;fill-rule:nonzero;fill:rgb(0%,0%,0%);fill-opacity:1;" d="M 140.046875 5.011719 C 140.046875 4.105469 140.34375 2.496094 141.859375 1.449219 C 141.984375 1.355469 141.984375 1.339844 142 1.324219 C 142.015625 1.292969 142.015625 1.261719 142.015625 1.167969 C 142.015625 0.949219 142.015625 0.949219 141.78125 0.949219 C 141.625 0.949219 141.609375 0.949219 141.390625 1.074219 C 139.5 2.167969 138.921875 3.792969 138.921875 5.011719 L 138.921875 8.855469 C 138.921875 9.089844 138.921875 9.105469 139.171875 9.105469 L 139.796875 9.105469 C 140.046875 9.105469 140.046875 9.089844 140.046875 8.855469 Z M 140.046875 5.011719 "/>
<path style=" stroke:none;fill-rule:nonzero;fill:rgb(0%,0%,0%);fill-opacity:1;" d="M 140.046875 9.160156 C 140.046875 8.910156 140.046875 8.910156 139.796875 8.910156 L 139.171875 8.910156 C 138.921875 8.910156 138.921875 8.910156 138.921875 9.160156 L 138.921875 11.535156 C 138.921875 11.785156 138.921875 11.800781 139.171875 11.800781 L 139.796875 11.800781 C 140.046875 11.800781 140.046875 11.785156 140.046875 11.535156 Z M 140.046875 9.160156 "/>
<path style=" stroke:none;fill-rule:nonzero;fill:rgb(0%,0%,0%);fill-opacity:1;" d="M 140.046875 11.847656 C 140.046875 11.597656 140.046875 11.597656 139.796875 11.597656 L 139.171875 11.597656 C 138.921875 11.597656 138.921875 11.597656 138.921875 11.847656 L 138.921875 14.222656 C 138.921875 14.472656 138.921875 14.488281 139.171875 14.488281 L 139.796875 14.488281 C 140.046875 14.488281 140.046875 14.472656 140.046875 14.222656 Z M 140.046875 11.847656 "/>
<path style=" stroke:none;fill-rule:nonzero;fill:rgb(0%,0%,0%);fill-opacity:1;" d="M 140.046875 14.539062 C 140.046875 14.289062 140.046875 14.289062 139.796875 14.289062 L 139.171875 14.289062 C 138.921875 14.289062 138.921875 14.289062 138.921875 14.539062 L 138.921875 16.914062 C 138.921875 17.164062 138.921875 17.179688 139.171875 17.179688 L 139.796875 17.179688 C 140.046875 17.179688 140.046875 17.164062 140.046875 16.914062 Z M 140.046875 14.539062 "/>
<path style=" stroke:none;fill-rule:nonzero;fill:rgb(0%,0%,0%);fill-opacity:1;" d="M 140.046875 17.226562 C 140.046875 16.976562 140.046875 16.976562 139.796875 16.976562 L 139.171875 16.976562 C 138.921875 16.976562 138.921875 16.976562 138.921875 17.226562 L 138.921875 19.601562 C 138.921875 19.851562 138.921875 19.867188 139.171875 19.867188 L 139.796875 19.867188 C 140.046875 19.867188 140.046875 19.851562 140.046875 19.601562 Z M 140.046875 17.226562 "/>
<path style=" stroke:none;fill-rule:nonzero;fill:rgb(0%,0%,0%);fill-opacity:1;" d="M 140.046875 19.917969 C 140.046875 19.667969 140.046875 19.667969 139.796875 19.667969 L 139.171875 19.667969 C 138.921875 19.667969 138.921875 19.667969 138.921875 19.917969 L 138.921875 22.292969 C 138.921875 22.542969 138.921875 22.558594 139.171875 22.558594 L 139.796875 22.558594 C 140.046875 22.558594 140.046875 22.542969 140.046875 22.292969 Z M 140.046875 19.917969 "/>
<path style=" stroke:none;fill-rule:nonzero;fill:rgb(0%,0%,0%);fill-opacity:1;" d="M 140.046875 34.65625 C 140.046875 33.375 139.421875 31.640625 137.53125 30.53125 C 139.421875 29.390625 140.046875 27.6875 140.046875 26.390625 L 140.046875 22.609375 C 140.046875 22.359375 140.046875 22.359375 139.796875 22.359375 L 139.171875 22.359375 C 138.921875 22.359375 138.921875 22.359375 138.921875 22.609375 L 138.921875 26.40625 C 138.921875 26.765625 138.921875 28.921875 137.046875 30.296875 C 136.96875 30.359375 136.953125 30.359375 136.953125 30.53125 C 136.953125 30.6875 136.96875 30.703125 137.015625 30.75 C 137.5625 31.140625 137.921875 31.515625 138.3125 32.1875 C 138.75 32.984375 138.921875 33.9375 138.921875 34.65625 L 138.921875 38.4375 C 138.921875 38.6875 138.921875 38.703125 139.171875 38.703125 L 139.796875 38.703125 C 140.046875 38.703125 140.046875 38.6875 140.046875 38.4375 Z M 140.046875 34.65625 "/>
<path style=" stroke:none;fill-rule:nonzero;fill:rgb(0%,0%,0%);fill-opacity:1;" d="M 140.046875 38.746094 C 140.046875 38.496094 140.046875 38.496094 139.796875 38.496094 L 139.171875 38.496094 C 138.921875 38.496094 138.921875 38.496094 138.921875 38.746094 L 138.921875 41.121094 C 138.921875 41.371094 138.921875 41.386719 139.171875 41.386719 L 139.796875 41.386719 C 140.046875 41.386719 140.046875 41.371094 140.046875 41.121094 Z M 140.046875 38.746094 "/>
<path style=" stroke:none;fill-rule:nonzero;fill:rgb(0%,0%,0%);fill-opacity:1;" d="M 140.046875 41.4375 C 140.046875 41.1875 140.046875 41.1875 139.796875 41.1875 L 139.171875 41.1875 C 138.921875 41.1875 138.921875 41.1875 138.921875 41.4375 L 138.921875 43.8125 C 138.921875 44.0625 138.921875 44.078125 139.171875 44.078125 L 139.796875 44.078125 C 140.046875 44.078125 140.046875 44.0625 140.046875 43.8125 Z M 140.046875 41.4375 "/>
<path style=" stroke:none;fill-rule:nonzero;fill:rgb(0%,0%,0%);fill-opacity:1;" d="M 140.046875 44.128906 C 140.046875 43.878906 140.046875 43.878906 139.796875 43.878906 L 139.171875 43.878906 C 138.921875 43.878906 138.921875 43.878906 138.921875 44.128906 L 138.921875 46.503906 C 138.921875 46.753906 138.921875 46.769531 139.171875 46.769531 L 139.796875 46.769531 C 140.046875 46.769531 140.046875 46.753906 140.046875 46.503906 Z M 140.046875 44.128906 "/>
<path style=" stroke:none;fill-rule:nonzero;fill:rgb(0%,0%,0%);fill-opacity:1;" d="M 140.046875 46.816406 C 140.046875 46.566406 140.046875 46.566406 139.796875 46.566406 L 139.171875 46.566406 C 138.921875 46.566406 138.921875 46.566406 138.921875 46.816406 L 138.921875 49.191406 C 138.921875 49.441406 138.921875 49.457031 139.171875 49.457031 L 139.796875 49.457031 C 140.046875 49.457031 140.046875 49.441406 140.046875 49.191406 Z M 140.046875 46.816406 "/>
<path style=" stroke:none;fill-rule:nonzero;fill:rgb(0%,0%,0%);fill-opacity:1;" d="M 140.046875 49.507812 C 140.046875 49.257812 140.046875 49.257812 139.796875 49.257812 L 139.171875 49.257812 C 138.921875 49.257812 138.921875 49.257812 138.921875 49.507812 L 138.921875 51.882812 C 138.921875 52.132812 138.921875 52.148438 139.171875 52.148438 L 139.796875 52.148438 C 140.046875 52.148438 140.046875 52.132812 140.046875 51.882812 Z M 140.046875 49.507812 "/>
<path style=" stroke:none;fill-rule:nonzero;fill:rgb(0%,0%,0%);fill-opacity:1;" d="M 140.046875 52.195312 C 140.046875 51.945312 140.046875 51.945312 139.796875 51.945312 L 139.171875 51.945312 C 138.921875 51.945312 138.921875 51.945312 138.921875 52.195312 L 138.921875 56.039062 C 138.921875 57.992188 140.328125 59.476562 141.609375 60.085938 C 141.65625 60.101562 141.671875 60.101562 141.78125 60.101562 C 142.015625 60.101562 142.015625 60.085938 142.015625 59.882812 C 142.015625 59.710938 142 59.710938 141.921875 59.648438 C 141.515625 59.367188 140.96875 58.960938 140.5 58.023438 C 140.1875 57.367188 140.046875 56.617188 140.046875 56.039062 Z M 140.046875 52.195312 "/>
<path style=" stroke:none;fill-rule:nonzero;fill:rgb(0%,0%,0%);fill-opacity:1;" d="M 148.082031 4.21875 C 148.097656 4.171875 148.113281 4.125 148.113281 4.0625 C 148.113281 3.953125 148.035156 3.8125 147.832031 3.8125 C 147.722656 3.8125 147.550781 3.875 147.488281 4.046875 C 147.472656 4.078125 147.378906 4.453125 147.332031 4.65625 L 146.878906 6.4375 C 146.816406 6.703125 146.816406 6.71875 146.785156 6.796875 C 146.785156 6.84375 146.410156 7.546875 145.753906 7.546875 C 145.207031 7.546875 145.207031 6.984375 145.207031 6.8125 C 145.207031 6.40625 145.316406 5.96875 145.707031 4.96875 C 145.785156 4.75 145.832031 4.625 145.832031 4.46875 C 145.832031 4.015625 145.503906 3.703125 145.066406 3.703125 C 144.207031 3.703125 143.847656 4.984375 143.847656 5.09375 C 143.847656 5.171875 143.910156 5.203125 143.972656 5.203125 C 144.066406 5.203125 144.082031 5.140625 144.113281 5.03125 C 144.300781 4.359375 144.660156 3.9375 145.035156 3.9375 C 145.253906 3.9375 145.253906 4.109375 145.253906 4.234375 C 145.253906 4.375 145.207031 4.546875 145.128906 4.75 C 144.707031 5.875 144.597656 6.25 144.597656 6.671875 C 144.597656 7.671875 145.410156 7.765625 145.738281 7.765625 C 146.175781 7.765625 146.488281 7.53125 146.644531 7.375 C 146.535156 7.828125 146.441406 8.234375 146.082031 8.6875 C 145.816406 9.046875 145.457031 9.28125 145.066406 9.28125 C 144.816406 9.28125 144.519531 9.203125 144.394531 8.953125 C 144.863281 8.953125 144.925781 8.546875 144.925781 8.46875 C 144.925781 8.265625 144.785156 8.140625 144.582031 8.140625 C 144.378906 8.140625 144.082031 8.3125 144.082031 8.71875 C 144.082031 9.1875 144.503906 9.515625 145.066406 9.515625 C 145.972656 9.515625 146.957031 8.734375 147.207031 7.6875 Z M 148.082031 4.21875 "/>
<path style=" stroke:none;fill-rule:nonzero;fill:rgb(0%,0%,0%);fill-opacity:1;" d="M 150.261719 4.871094 C 150.261719 4.683594 150.246094 4.683594 150.058594 4.683594 C 149.667969 5.074219 149.058594 5.074219 148.839844 5.074219 L 148.839844 5.308594 C 148.996094 5.308594 149.402344 5.308594 149.761719 5.136719 L 149.761719 8.152344 C 149.761719 8.355469 149.761719 8.433594 149.136719 8.433594 L 148.886719 8.433594 L 148.886719 8.667969 C 149.214844 8.636719 149.683594 8.636719 150.011719 8.636719 C 150.339844 8.636719 150.808594 8.636719 151.136719 8.667969 L 151.136719 8.433594 L 150.886719 8.433594 C 150.261719 8.433594 150.261719 8.355469 150.261719 8.152344 Z M 150.261719 4.871094 "/>
<path style=" stroke:none;fill-rule:nonzero;fill:rgb(0%,0%,0%);fill-opacity:1;" d="M 148.082031 18.164062 C 148.097656 18.117188 148.113281 18.070312 148.113281 18.007812 C 148.113281 17.898438 148.035156 17.757812 147.832031 17.757812 C 147.722656 17.757812 147.550781 17.820312 147.488281 17.992188 C 147.472656 18.023438 147.378906 18.398438 147.332031 18.601562 L 146.878906 20.382812 C 146.816406 20.648438 146.816406 20.664062 146.785156 20.742188 C 146.785156 20.789062 146.410156 21.492188 145.753906 21.492188 C 145.207031 21.492188 145.207031 20.929688 145.207031 20.757812 C 145.207031 20.351562 145.316406 19.914062 145.707031 18.914062 C 145.785156 18.695312 145.832031 18.570312 145.832031 18.414062 C 145.832031 17.960938 145.503906 17.648438 145.066406 17.648438 C 144.207031 17.648438 143.847656 18.929688 143.847656 19.039062 C 143.847656 19.117188 143.910156 19.148438 143.972656 19.148438 C 144.066406 19.148438 144.082031 19.085938 144.113281 18.976562 C 144.300781 18.304688 144.660156 17.882812 145.035156 17.882812 C 145.253906 17.882812 145.253906 18.054688 145.253906 18.179688 C 145.253906 18.320312 145.207031 18.492188 145.128906 18.695312 C 144.707031 19.820312 144.597656 20.195312 144.597656 20.617188 C 144.597656 21.617188 145.410156 21.710938 145.738281 21.710938 C 146.175781 21.710938 146.488281 21.476562 146.644531 21.320312 C 146.535156 21.773438 146.441406 22.179688 146.082031 22.632812 C 145.816406 22.992188 145.457031 23.226562 145.066406 23.226562 C 144.816406 23.226562 144.519531 23.148438 144.394531 22.898438 C 144.863281 22.898438 144.925781 22.492188 144.925781 22.414062 C 144.925781 22.210938 144.785156 22.085938 144.582031 22.085938 C 144.378906 22.085938 144.082031 22.257812 144.082031 22.664062 C 144.082031 23.132812 144.503906 23.460938 145.066406 23.460938 C 145.972656 23.460938 146.957031 22.679688 147.207031 21.632812 Z M 148.082031 18.164062 "/>
<path style=" stroke:none;fill-rule:nonzero;fill:rgb(0%,0%,0%);fill-opacity:1;" d="M 151.339844 21.488281 L 151.121094 21.488281 C 151.105469 21.582031 151.042969 21.972656 150.964844 22.035156 C 150.917969 22.082031 150.433594 22.082031 150.339844 22.082031 L 149.230469 22.082031 L 149.996094 21.457031 C 150.199219 21.285156 150.730469 20.910156 150.917969 20.722656 C 151.089844 20.550781 151.339844 20.238281 151.339844 19.816406 C 151.339844 19.066406 150.667969 18.628906 149.855469 18.628906 C 149.089844 18.628906 148.558594 19.144531 148.558594 19.707031 C 148.558594 20.003906 148.808594 20.050781 148.871094 20.050781 C 149.027344 20.050781 149.199219 19.941406 149.199219 19.722656 C 149.199219 19.597656 149.121094 19.394531 148.855469 19.394531 C 148.996094 19.097656 149.355469 18.863281 149.777344 18.863281 C 150.402344 18.863281 150.730469 19.332031 150.730469 19.816406 C 150.730469 20.238281 150.449219 20.675781 150.042969 21.066406 L 148.621094 22.363281 C 148.558594 22.425781 148.558594 22.425781 148.558594 22.613281 L 151.152344 22.613281 Z M 151.339844 21.488281 "/>
<path style=" stroke:none;fill-rule:nonzero;fill:rgb(0%,0%,0%);fill-opacity:1;" d="M 148.082031 32.113281 C 148.097656 32.066406 148.113281 32.019531 148.113281 31.957031 C 148.113281 31.847656 148.035156 31.707031 147.832031 31.707031 C 147.722656 31.707031 147.550781 31.769531 147.488281 31.941406 C 147.472656 31.972656 147.378906 32.347656 147.332031 32.550781 L 146.878906 34.332031 C 146.816406 34.597656 146.816406 34.613281 146.785156 34.691406 C 146.785156 34.738281 146.410156 35.441406 145.753906 35.441406 C 145.207031 35.441406 145.207031 34.878906 145.207031 34.707031 C 145.207031 34.300781 145.316406 33.863281 145.707031 32.863281 C 145.785156 32.644531 145.832031 32.519531 145.832031 32.363281 C 145.832031 31.910156 145.503906 31.597656 145.066406 31.597656 C 144.207031 31.597656 143.847656 32.878906 143.847656 32.988281 C 143.847656 33.066406 143.910156 33.097656 143.972656 33.097656 C 144.066406 33.097656 144.082031 33.035156 144.113281 32.925781 C 144.300781 32.253906 144.660156 31.832031 145.035156 31.832031 C 145.253906 31.832031 145.253906 32.003906 145.253906 32.128906 C 145.253906 32.269531 145.207031 32.441406 145.128906 32.644531 C 144.707031 33.769531 144.597656 34.144531 144.597656 34.566406 C 144.597656 35.566406 145.410156 35.660156 145.738281 35.660156 C 146.175781 35.660156 146.488281 35.425781 146.644531 35.269531 C 146.535156 35.722656 146.441406 36.128906 146.082031 36.582031 C 145.816406 36.941406 145.457031 37.175781 145.066406 37.175781 C 144.816406 37.175781 144.519531 37.097656 144.394531 36.847656 C 144.863281 36.847656 144.925781 36.441406 144.925781 36.363281 C 144.925781 36.160156 144.785156 36.035156 144.582031 36.035156 C 144.378906 36.035156 144.082031 36.207031 144.082031 36.613281 C 144.082031 37.082031 144.503906 37.410156 145.066406 37.410156 C 145.972656 37.410156 146.957031 36.628906 147.207031 35.582031 Z M 148.082031 32.113281 "/>
<path style=" stroke:none;fill-rule:nonzero;fill:rgb(0%,0%,0%);fill-opacity:1;" d="M 149.886719 34.578125 C 150.386719 34.578125 150.730469 34.921875 150.730469 35.53125 C 150.730469 36.1875 150.339844 36.46875 149.902344 36.46875 C 149.730469 36.46875 149.121094 36.4375 148.855469 36.09375 C 149.089844 36.0625 149.183594 35.90625 149.183594 35.75 C 149.183594 35.546875 149.042969 35.40625 148.839844 35.40625 C 148.683594 35.40625 148.496094 35.515625 148.496094 35.765625 C 148.496094 36.359375 149.152344 36.6875 149.917969 36.6875 C 150.808594 36.6875 151.386719 36.125 151.386719 35.53125 C 151.386719 35.09375 151.058594 34.625 150.339844 34.453125 C 150.824219 34.296875 151.199219 33.90625 151.199219 33.421875 C 151.199219 32.9375 150.636719 32.578125 149.917969 32.578125 C 149.214844 32.578125 148.683594 32.90625 148.683594 33.390625 C 148.683594 33.65625 148.886719 33.71875 149.011719 33.71875 C 149.167969 33.71875 149.324219 33.625 149.324219 33.40625 C 149.324219 33.21875 149.199219 33.109375 149.027344 33.09375 C 149.308594 32.78125 149.855469 32.78125 149.917969 32.78125 C 150.214844 32.78125 150.605469 32.921875 150.605469 33.421875 C 150.605469 33.75 150.417969 34.328125 149.808594 34.359375 C 149.699219 34.359375 149.542969 34.375 149.496094 34.375 C 149.433594 34.390625 149.371094 34.390625 149.371094 34.484375 C 149.371094 34.578125 149.433594 34.578125 149.527344 34.578125 Z M 149.886719 34.578125 "/>
<path style=" stroke:none;fill-rule:nonzero;fill:rgb(0%,0%,0%);fill-opacity:1;" d="M 145.347656 49.300781 C 145.347656 49.035156 145.128906 48.816406 144.863281 48.816406 C 144.582031 48.816406 144.378906 49.035156 144.378906 49.300781 C 144.378906 49.566406 144.582031 49.785156 144.863281 49.785156 C 145.128906 49.785156 145.347656 49.566406 145.347656 49.300781 Z M 145.347656 49.300781 "/>
<path style=" stroke:none;fill-rule:nonzero;fill:rgb(0%,0%,0%);fill-opacity:1;" d="M 145.347656 53.285156 C 145.347656 53.019531 145.128906 52.800781 144.863281 52.800781 C 144.582031 52.800781 144.378906 53.019531 144.378906 53.285156 C 144.378906 53.550781 144.582031 53.769531 144.863281 53.769531 C 145.128906 53.769531 145.347656 53.550781 145.347656 53.285156 Z M 145.347656 53.285156 "/>
<path style=" stroke:none;fill-rule:nonzero;fill:rgb(0%,0%,0%);fill-opacity:1;" d="M 145.347656 57.269531 C 145.347656 57.003906 145.128906 56.785156 144.863281 56.785156 C 144.582031 56.785156 144.378906 57.003906 144.378906 57.269531 C 144.378906 57.535156 144.582031 57.753906 144.863281 57.753906 C 145.128906 57.753906 145.347656 57.535156 145.347656 57.269531 Z M 145.347656 57.269531 "/>
<path style=" stroke:none;fill-rule:nonzero;fill:rgb(0%,0%,0%);fill-opacity:1;" d="M 119.820312 23.121094 C 119.648438 22.792969 119.382812 22.558594 118.976562 22.558594 C 117.929688 22.558594 116.773438 23.808594 116.773438 25.167969 C 116.773438 26.152344 117.398438 26.621094 118.007812 26.621094 C 118.585938 26.621094 119.054688 26.136719 119.210938 25.964844 C 119.304688 26.464844 119.757812 26.621094 120.039062 26.621094 C 120.304688 26.621094 120.523438 26.511719 120.726562 26.136719 C 120.882812 25.839844 121.007812 25.277344 121.007812 25.246094 C 121.007812 25.199219 120.976562 25.136719 120.898438 25.136719 C 120.789062 25.136719 120.773438 25.183594 120.742188 25.355469 C 120.539062 26.136719 120.351562 26.402344 120.070312 26.402344 C 119.835938 26.402344 119.789062 26.183594 119.789062 25.996094 C 119.789062 25.824219 119.835938 25.636719 119.914062 25.324219 L 120.132812 24.402344 C 120.195312 24.183594 120.367188 23.511719 120.398438 23.371094 C 120.429688 23.246094 120.492188 23.027344 120.492188 22.996094 C 120.492188 22.855469 120.367188 22.746094 120.210938 22.746094 C 120.085938 22.746094 119.867188 22.808594 119.820312 23.121094 Z M 119.242188 25.433594 C 119.195312 25.605469 119.195312 25.605469 119.054688 25.777344 C 118.726562 26.167969 118.367188 26.402344 118.023438 26.402344 C 117.585938 26.402344 117.445312 25.949219 117.445312 25.558594 C 117.445312 25.121094 117.695312 24.089844 117.914062 23.652344 C 118.195312 23.121094 118.617188 22.792969 118.976562 22.792969 C 119.570312 22.792969 119.710938 23.511719 119.710938 23.574219 C 119.710938 23.605469 119.695312 23.667969 119.679688 23.699219 Z M 119.242188 25.433594 "/>
<path style=" stroke:none;fill-rule:nonzero;fill:rgb(0%,0%,0%);fill-opacity:1;" d="M 124.0625 25.226562 C 123.984375 25.242188 123.78125 25.351562 123.78125 25.570312 C 123.78125 25.710938 123.890625 25.789062 124.015625 25.789062 C 124.15625 25.789062 124.359375 25.695312 124.359375 25.398438 C 124.359375 25.023438 123.90625 24.882812 123.53125 24.882812 C 122.59375 24.882812 121.734375 25.679688 121.734375 26.523438 C 121.734375 27.085938 122.140625 27.585938 122.921875 27.585938 C 124.046875 27.585938 124.46875 26.992188 124.46875 26.914062 C 124.46875 26.867188 124.40625 26.804688 124.359375 26.804688 C 124.328125 26.804688 124.328125 26.804688 124.234375 26.898438 C 123.90625 27.273438 123.359375 27.382812 122.921875 27.382812 C 122.4375 27.382812 122.25 27.070312 122.25 26.710938 C 122.25 26.695312 122.265625 26.007812 122.671875 25.492188 C 122.765625 25.398438 123.078125 25.085938 123.53125 25.085938 C 123.5625 25.085938 123.875 25.085938 124.0625 25.226562 Z M 124.0625 25.226562 "/>
<path style="fill:none;stroke-width:0.1;stroke-linecap:butt;stroke-linejoin:round;stroke:rgb(81.959534%,81.959534%,81.959534%);stroke-opacity:1;stroke-miterlimit:10;" d="M 28.398438 55.523438 L 36.398438 55.523438 "/>
<path style="fill:none;stroke-width:0.8;stroke-linecap:butt;stroke-linejoin:round;stroke:rgb(0%,0%,0%);stroke-opacity:1;stroke-miterlimit:10;" d="M 28.398438 7.523438 L 36.398438 7.523438 L 36.398438 55.523438 L 28.398438 55.523438 Z M 28.398438 7.523438 "/>
<path style="fill:none;stroke-width:0.8;stroke-linecap:butt;stroke-linejoin:round;stroke:rgb(0%,0%,0%);stroke-opacity:1;stroke-miterlimit:10;" d="M 56.398438 7.523438 L 64.398438 7.523438 L 64.398438 55.523438 L 56.398438 55.523438 Z M 56.398438 7.523438 "/>
<path style="fill:none;stroke-width:0.8;stroke-linecap:butt;stroke-linejoin:round;stroke:rgb(0%,0%,0%);stroke-opacity:1;stroke-miterlimit:10;" d="M 104.398438 7.523438 L 112.398438 7.523438 L 112.398438 55.523438 L 104.398438 55.523438 Z M 104.398438 7.523438 "/>
<path style=" stroke:none;fill-rule:nonzero;fill:rgb(0%,0%,0%);fill-opacity:1;" d="M 82.164062 33.273438 C 82.164062 33.007812 81.945312 32.789062 81.679688 32.789062 C 81.398438 32.789062 81.195312 33.007812 81.195312 33.273438 C 81.195312 33.539062 81.398438 33.757812 81.679688 33.757812 C 81.945312 33.757812 82.164062 33.539062 82.164062 33.273438 Z M 82.164062 33.273438 "/>
<path style=" stroke:none;fill-rule:nonzero;fill:rgb(0%,0%,0%);fill-opacity:1;" d="M 86.257812 33.273438 C 86.257812 33.007812 86.039062 32.789062 85.773438 32.789062 C 85.492188 32.789062 85.289062 33.007812 85.289062 33.273438 C 85.289062 33.539062 85.492188 33.757812 85.773438 33.757812 C 86.039062 33.757812 86.257812 33.539062 86.257812 33.273438 Z M 86.257812 33.273438 "/>
<path style=" stroke:none;fill-rule:nonzero;fill:rgb(0%,0%,0%);fill-opacity:1;" d="M 90.359375 33.273438 C 90.359375 33.007812 90.140625 32.789062 89.875 32.789062 C 89.59375 32.789062 89.390625 33.007812 89.390625 33.273438 C 89.390625 33.539062 89.59375 33.757812 89.875 33.757812 C 90.140625 33.757812 90.359375 33.539062 90.359375 33.273438 Z M 90.359375 33.273438 "/>
<path style="fill:none;stroke-width:0.8;stroke-linecap:butt;stroke-linejoin:round;stroke:rgb(0%,0%,0%);stroke-opacity:1;stroke-miterlimit:10;" d="M 92.398438 31.523438 L 104.398438 31.523438 "/>
<path style="fill-rule:evenodd;fill:rgb(0%,0%,0%);fill-opacity:1;stroke-width:0.8;stroke-linecap:butt;stroke-linejoin:round;stroke:rgb(0%,0%,0%);stroke-opacity:1;stroke-miterlimit:10;" d="M 104.398438 31.523438 L 99.398438 29.859375 L 99.398438 33.1875 Z M 104.398438 31.523438 "/>
<path style=" stroke:none;fill-rule:nonzero;fill:rgb(0%,0%,0%);fill-opacity:1;" d="M 71.820312 21.890625 C 71.648438 21.5625 71.382812 21.328125 70.976562 21.328125 C 69.929688 21.328125 68.773438 22.578125 68.773438 23.9375 C 68.773438 24.921875 69.398438 25.390625 70.007812 25.390625 C 70.585938 25.390625 71.054688 24.90625 71.210938 24.734375 C 71.304688 25.234375 71.757812 25.390625 72.039062 25.390625 C 72.304688 25.390625 72.523438 25.28125 72.726562 24.90625 C 72.882812 24.609375 73.007812 24.046875 73.007812 24.015625 C 73.007812 23.96875 72.976562 23.90625 72.898438 23.90625 C 72.789062 23.90625 72.773438 23.953125 72.742188 24.125 C 72.539062 24.90625 72.351562 25.171875 72.070312 25.171875 C 71.835938 25.171875 71.789062 24.953125 71.789062 24.765625 C 71.789062 24.59375 71.835938 24.40625 71.914062 24.09375 L 72.132812 23.171875 C 72.195312 22.953125 72.367188 22.28125 72.398438 22.140625 C 72.429688 22.015625 72.492188 21.796875 72.492188 21.765625 C 72.492188 21.625 72.367188 21.515625 72.210938 21.515625 C 72.085938 21.515625 71.867188 21.578125 71.820312 21.890625 Z M 71.242188 24.203125 C 71.195312 24.375 71.195312 24.375 71.054688 24.546875 C 70.726562 24.9375 70.367188 25.171875 70.023438 25.171875 C 69.585938 25.171875 69.445312 24.71875 69.445312 24.328125 C 69.445312 23.890625 69.695312 22.859375 69.914062 22.421875 C 70.195312 21.890625 70.617188 21.5625 70.976562 21.5625 C 71.570312 21.5625 71.710938 22.28125 71.710938 22.34375 C 71.710938 22.375 71.695312 22.4375 71.679688 22.46875 Z M 71.242188 24.203125 "/>
<path style=" stroke:none;fill-rule:nonzero;fill:rgb(0%,0%,0%);fill-opacity:1;" d="M 75.859375 24.015625 L 76.46875 24.015625 C 76.59375 24.015625 76.671875 24.015625 76.671875 23.875 C 76.671875 23.78125 76.59375 23.78125 76.484375 23.78125 L 75.90625 23.78125 C 76.078125 22.796875 76.078125 22.78125 76.109375 22.671875 C 76.140625 22.546875 76.140625 22.5 76.234375 22.421875 C 76.3125 22.375 76.359375 22.34375 76.453125 22.34375 C 76.546875 22.34375 76.640625 22.359375 76.734375 22.390625 C 76.609375 22.453125 76.5 22.578125 76.5 22.71875 C 76.5 22.84375 76.609375 22.953125 76.75 22.953125 C 76.90625 22.953125 77.09375 22.8125 77.09375 22.578125 C 77.09375 22.25 76.71875 22.140625 76.453125 22.140625 C 76.1875 22.140625 75.78125 22.265625 75.59375 22.875 C 75.546875 23.015625 75.53125 23.140625 75.484375 23.359375 C 75.453125 23.53125 75.453125 23.609375 75.40625 23.78125 L 74.921875 23.78125 C 74.796875 23.78125 74.71875 23.78125 74.71875 23.9375 C 74.71875 24.015625 74.796875 24.015625 74.90625 24.015625 L 75.375 24.015625 C 75.140625 25.359375 75.046875 25.828125 75.03125 25.921875 C 74.84375 26.953125 74.8125 27.015625 74.765625 27.125 C 74.671875 27.265625 74.578125 27.375 74.421875 27.375 C 74.390625 27.375 74.25 27.375 74.15625 27.328125 C 74.28125 27.28125 74.390625 27.15625 74.390625 27 C 74.390625 26.875 74.28125 26.78125 74.140625 26.78125 C 73.984375 26.78125 73.796875 26.90625 73.796875 27.140625 C 73.796875 27.484375 74.171875 27.578125 74.421875 27.578125 C 74.75 27.578125 74.984375 27.3125 75.09375 27.171875 C 75.359375 26.828125 75.484375 26.109375 75.484375 26.0625 Z M 75.859375 24.015625 "/>
<path style=" stroke:none;fill-rule:nonzero;fill:rgb(0%,0%,0%);fill-opacity:1;" d="M 78.855469 24.339844 C 78.855469 24.199219 78.839844 24.199219 78.667969 24.199219 C 78.324219 24.511719 77.761719 24.511719 77.667969 24.511719 L 77.589844 24.511719 L 77.589844 24.730469 L 77.667969 24.730469 C 77.777344 24.730469 78.105469 24.714844 78.402344 24.589844 L 78.402344 27.089844 C 78.402344 27.230469 78.402344 27.292969 77.871094 27.292969 L 77.621094 27.292969 L 77.621094 27.511719 C 77.886719 27.496094 78.339844 27.496094 78.621094 27.496094 C 78.917969 27.496094 79.355469 27.496094 79.636719 27.511719 L 79.636719 27.292969 L 79.386719 27.292969 C 78.855469 27.292969 78.855469 27.230469 78.855469 27.089844 Z M 78.855469 24.339844 "/>
<path style="fill:none;stroke-width:0.4;stroke-linecap:butt;stroke-linejoin:round;stroke:rgb(74.116516%,74.116516%,74.116516%);stroke-opacity:1;stroke-miterlimit:10;" d="M 0.398438 47.523438 L 8.398438 47.523438 "/>
<path style="fill:none;stroke-width:0.4;stroke-linecap:butt;stroke-linejoin:round;stroke:rgb(74.116516%,74.116516%,74.116516%);stroke-opacity:1;stroke-miterlimit:10;" d="M 0.398438 39.523438 L 8.398438 39.523438 "/>
<path style=" stroke:none;fill-rule:nonzero;fill:rgb(0%,0%,0%);fill-opacity:1;" d="M 15.820312 21.890625 C 15.648438 21.5625 15.382812 21.328125 14.976562 21.328125 C 13.929688 21.328125 12.773438 22.578125 12.773438 23.9375 C 12.773438 24.921875 13.398438 25.390625 14.007812 25.390625 C 14.585938 25.390625 15.054688 24.90625 15.210938 24.734375 C 15.304688 25.234375 15.757812 25.390625 16.039062 25.390625 C 16.304688 25.390625 16.523438 25.28125 16.726562 24.90625 C 16.882812 24.609375 17.007812 24.046875 17.007812 24.015625 C 17.007812 23.96875 16.976562 23.90625 16.898438 23.90625 C 16.789062 23.90625 16.773438 23.953125 16.742188 24.125 C 16.539062 24.90625 16.351562 25.171875 16.070312 25.171875 C 15.835938 25.171875 15.789062 24.953125 15.789062 24.765625 C 15.789062 24.59375 15.835938 24.40625 15.914062 24.09375 L 16.132812 23.171875 C 16.195312 22.953125 16.367188 22.28125 16.398438 22.140625 C 16.429688 22.015625 16.492188 21.796875 16.492188 21.765625 C 16.492188 21.625 16.367188 21.515625 16.210938 21.515625 C 16.085938 21.515625 15.867188 21.578125 15.820312 21.890625 Z M 15.242188 24.203125 C 15.195312 24.375 15.195312 24.375 15.054688 24.546875 C 14.726562 24.9375 14.367188 25.171875 14.023438 25.171875 C 13.585938 25.171875 13.445312 24.71875 13.445312 24.328125 C 13.445312 23.890625 13.695312 22.859375 13.914062 22.421875 C 14.195312 21.890625 14.617188 21.5625 14.976562 21.5625 C 15.570312 21.5625 15.710938 22.28125 15.710938 22.34375 C 15.710938 22.375 15.695312 22.4375 15.679688 22.46875 Z M 15.242188 24.203125 "/>
<path style=" stroke:none;fill-rule:nonzero;fill:rgb(0%,0%,0%);fill-opacity:1;" d="M 19.859375 24.015625 L 20.46875 24.015625 C 20.59375 24.015625 20.671875 24.015625 20.671875 23.875 C 20.671875 23.78125 20.59375 23.78125 20.484375 23.78125 L 19.90625 23.78125 C 20.078125 22.796875 20.078125 22.78125 20.109375 22.671875 C 20.140625 22.546875 20.140625 22.5 20.234375 22.421875 C 20.3125 22.375 20.359375 22.34375 20.453125 22.34375 C 20.546875 22.34375 20.640625 22.359375 20.734375 22.390625 C 20.609375 22.453125 20.5 22.578125 20.5 22.71875 C 20.5 22.84375 20.609375 22.953125 20.75 22.953125 C 20.90625 22.953125 21.09375 22.8125 21.09375 22.578125 C 21.09375 22.25 20.71875 22.140625 20.453125 22.140625 C 20.1875 22.140625 19.78125 22.265625 19.59375 22.875 C 19.546875 23.015625 19.53125 23.140625 19.484375 23.359375 C 19.453125 23.53125 19.453125 23.609375 19.40625 23.78125 L 18.921875 23.78125 C 18.796875 23.78125 18.71875 23.78125 18.71875 23.9375 C 18.71875 24.015625 18.796875 24.015625 18.90625 24.015625 L 19.375 24.015625 C 19.140625 25.359375 19.046875 25.828125 19.03125 25.921875 C 18.84375 26.953125 18.8125 27.015625 18.765625 27.125 C 18.671875 27.265625 18.578125 27.375 18.421875 27.375 C 18.390625 27.375 18.25 27.375 18.15625 27.328125 C 18.28125 27.28125 18.390625 27.15625 18.390625 27 C 18.390625 26.875 18.28125 26.78125 18.140625 26.78125 C 17.984375 26.78125 17.796875 26.90625 17.796875 27.140625 C 17.796875 27.484375 18.171875 27.578125 18.421875 27.578125 C 18.75 27.578125 18.984375 27.3125 19.09375 27.171875 C 19.359375 26.828125 19.484375 26.109375 19.484375 26.0625 Z M 19.859375 24.015625 "/>
<path style=" stroke:none;fill-rule:nonzero;fill:rgb(0%,0%,0%);fill-opacity:1;" d="M 22.511719 25.855469 C 22.980469 25.855469 23.277344 26.152344 23.277344 26.636719 C 23.277344 27.152344 22.964844 27.417969 22.527344 27.417969 C 22.464844 27.417969 21.871094 27.417969 21.621094 27.152344 C 21.824219 27.121094 21.886719 26.980469 21.886719 26.855469 C 21.886719 26.667969 21.746094 26.542969 21.574219 26.542969 C 21.417969 26.542969 21.277344 26.652344 21.277344 26.871094 C 21.277344 27.386719 21.855469 27.621094 22.542969 27.621094 C 23.355469 27.621094 23.855469 27.121094 23.855469 26.636719 C 23.855469 26.230469 23.496094 25.886719 22.933594 25.761719 C 23.527344 25.558594 23.683594 25.183594 23.683594 24.902344 C 23.683594 24.496094 23.183594 24.199219 22.558594 24.199219 C 21.933594 24.199219 21.449219 24.449219 21.449219 24.902344 C 21.449219 25.136719 21.636719 25.199219 21.730469 25.199219 C 21.871094 25.199219 22.011719 25.089844 22.011719 24.902344 C 22.011719 24.792969 21.949219 24.652344 21.777344 24.621094 C 21.980469 24.402344 22.433594 24.386719 22.542969 24.386719 C 22.902344 24.386719 23.152344 24.558594 23.152344 24.902344 C 23.152344 25.199219 22.964844 25.652344 22.449219 25.683594 C 22.308594 25.683594 22.292969 25.683594 22.152344 25.699219 C 22.105469 25.699219 22.042969 25.699219 22.042969 25.777344 C 22.042969 25.855469 22.089844 25.855469 22.183594 25.855469 Z M 22.511719 25.855469 "/>
<path style="fill:none;stroke-width:0.4;stroke-linecap:butt;stroke-linejoin:round;stroke:rgb(74.116516%,74.116516%,74.116516%);stroke-opacity:1;stroke-miterlimit:10;" d="M 0.398438 15.523438 L 8.398438 15.523438 "/>
<path style="fill:none;stroke-width:0.8;stroke-linecap:butt;stroke-linejoin:round;stroke:rgb(0%,0%,0%);stroke-opacity:1;stroke-miterlimit:10;" d="M 8.398438 31.523438 L 28.398438 31.523438 "/>
<path style="fill-rule:evenodd;fill:rgb(0%,0%,0%);fill-opacity:1;stroke-width:0.8;stroke-linecap:butt;stroke-linejoin:round;stroke:rgb(0%,0%,0%);stroke-opacity:1;stroke-miterlimit:10;" d="M 28.398438 31.523438 L 23.398438 29.859375 L 23.398438 33.1875 Z M 28.398438 31.523438 "/>
<path style="fill:none;stroke-width:0.1;stroke-linecap:butt;stroke-linejoin:round;stroke:rgb(81.959534%,81.959534%,81.959534%);stroke-opacity:1;stroke-miterlimit:10;" d="M 0.398438 55.523438 L 8.398438 55.523438 "/>
<path style="fill:none;stroke-width:0.4;stroke-linecap:butt;stroke-linejoin:round;stroke:rgb(74.116516%,74.116516%,74.116516%);stroke-opacity:1;stroke-miterlimit:10;" d="M 0.398438 23.523438 L 8.398438 23.523438 "/>
<path style="fill:none;stroke-width:0.4;stroke-linecap:butt;stroke-linejoin:round;stroke:rgb(74.116516%,74.116516%,74.116516%);stroke-opacity:1;stroke-miterlimit:10;" d="M 0.398438 31.523438 L 8.398438 31.523438 "/>
<path style="fill:none;stroke-width:0.8;stroke-linecap:butt;stroke-linejoin:round;stroke:rgb(0%,0%,0%);stroke-opacity:1;stroke-miterlimit:10;" d="M 0.398438 7.523438 L 8.398438 7.523438 L 8.398438 55.523438 L 0.398438 55.523438 Z M 0.398438 7.523438 "/>
</g>
</svg>
